<?xml version="1.0" encoding="UTF-8" standalone="no"?>
<!-- Created with Inkscape (http://www.inkscape.org/) -->

<svg
   version="1.1"
   id="svg1"
   width="735"
   height="321"
   viewBox="0 0 735 321"
   sodipodi:docname="ChonburiForkliftLogo.svg"
   inkscape:version="1.3 (0e150ed6c4, 2023-07-21)"
   xmlns:inkscape="http://www.inkscape.org/namespaces/inkscape"
   xmlns:sodipodi="http://sodipodi.sourceforge.net/DTD/sodipodi-0.dtd"
   xmlns="http://www.w3.org/2000/svg"
   xmlns:svg="http://www.w3.org/2000/svg">
  <defs
     id="defs1" />
  <sodipodi:namedview
     id="namedview1"
     pagecolor="#ffffff"
     bordercolor="#000000"
     borderopacity="0.25"
     inkscape:showpageshadow="2"
     inkscape:pageopacity="0.0"
     inkscape:pagecheckerboard="0"
     inkscape:deskcolor="#d1d1d1"
     inkscape:zoom="1.1034014"
     inkscape:cx="367.5"
     inkscape:cy="160.41307"
     inkscape:window-width="1440"
     inkscape:window-height="878"
     inkscape:window-x="-6"
     inkscape:window-y="-6"
     inkscape:window-maximized="1"
     inkscape:current-layer="g1" />
  <g
     inkscape:groupmode="layer"
     inkscape:label="Image"
     id="g1">
    <g
       id="g8"
       transform="translate(2.7188656,1.8125798)">
      <path
         style="fill:#eca09f"
         d="m 296.78919,306.25859 c 3.45905,-0.19583 8.85905,-0.19422 12,0.004 3.14094,0.19781 0.31081,0.35803 -6.28919,0.35606 -6.6,-0.002 -9.16987,-0.16382 -5.71081,-0.35965 z M 296.75,288.25064 c 15.5375,-0.15498 40.9625,-0.15498 56.5,0 15.5375,0.15498 2.825,0.28178 -28.25,0.28178 -31.075,0 -43.7875,-0.1268 -28.25,-0.28178 z M 56.035184,254.06574 C 54.846807,251.84524 54.576685,212.00045 55.75,211.9992 c 0.4125,-4.4e-4 0.642935,7.86688 0.512078,17.48292 -0.130857,9.61604 0.0989,19.10485 0.51057,21.08623 l 0.748491,3.60252 41.324464,-0.079 c 22.728457,-0.0434 41.675477,-0.29591 42.104487,-0.56106 0.42902,-0.26514 1.03247,-2.36418 1.34102,-4.66452 0.9549,-7.11939 7.32351,-18.51798 14.17362,-25.36809 7.09183,-7.09183 18.92105,-13.60333 28.24109,-15.54556 12.14201,-2.53031 27.62079,0.16129 36.68373,6.37891 4.66181,3.19823 7.16062,3.37745 8.63666,0.61945 1.46497,-2.73732 0.217,-6.34426 -7.59483,-21.95103 -7.89023,-15.76341 -11.43582,-23.80001 -11.41529,-25.87443 0.009,-0.89406 1.97013,2.64943 4.35841,7.87443 2.38828,5.225 7.10604,15.07399 10.48391,21.88665 6.55351,13.21743 7.31917,16.93577 4.14159,20.11335 -2.50231,2.50231 -2.64297,2.49316 -7.5,-0.48816 -12.46736,-7.65266 -23.30142,-9.74525 -36.56044,-7.06163 -20.98943,4.24825 -37.27416,19.34843 -42.11311,39.04979 -0.67544,2.75 -1.64281,5.5625 -2.14971,6.25 -0.71179,0.9654 -10.44831,1.25 -42.764001,1.25 -40.34487,0 -41.87942,-0.0692 -42.877555,-1.93426 z M 362.73333,241.87591 c 0.67834,-0.68342 1.48524,-0.99067 1.79313,-0.68278 0.30789,0.30789 -0.24711,0.86705 -1.23333,1.24258 -1.4252,0.54268 -1.54006,0.42782 -0.5598,-0.5598 z M 55.201326,185.82143 c -0.169158,-14.01369 0.04975,-16.92965 1.370103,-18.25 1.364941,-1.36494 5.898268,-1.57143 34.5,-1.57143 37.042981,0 35.693491,-0.27441 37.853451,7.69725 0.5667,2.09151 2.80972,9.09025 4.98449,15.55275 2.17477,6.4625 3.57307,11.75 3.10735,11.75 -0.46573,0 -3.02252,-6.77185 -5.68175,-15.04855 -2.65923,-8.27671 -5.64,-15.92671 -6.62393,-17 C 123.01003,167.09593 121.38492,167 91.652174,167 c -25.398956,0 -31.634364,0.266 -33.211044,1.41677 -1.74129,1.27091 -1.997616,3.09828 -2.489804,17.75 L 55.402651,202.5 Z M 150.96584,158.25 145.5,152.5 l 5.75,5.46584 c 5.34193,5.07794 6.20809,6.03416 5.46584,6.03416 -0.15629,0 -2.74379,-2.5875 -5.75,-5.75 z m 9.43915,-0.5 -1.90499,-2.25 2.25,1.90499 c 2.11444,1.79022 2.70524,2.59501 1.90499,2.59501 -0.18976,0 -1.20226,-1.0125 -2.25,-2.25 z M 286,153.11147 c -10.78159,-2.28312 -14.75867,-9.42136 -11.54933,-20.72927 3.1284,-11.02276 12.75364,-37.862544 16.16038,-45.062896 5.50433,-11.633723 13.79377,-16.639338 27.41402,-16.554073 C 329.03887,70.83418 336,75.865164 336,83.756168 c 0,3.105413 -3.67557,14.974853 -5.26243,16.993832 -1.38168,1.75793 -17.6153,1.7322 -18.29113,-0.029 -0.26994,-0.70344 0.41311,-3.906237 1.51789,-7.117324 1.10477,-3.211087 1.7632,-6.235542 1.46316,-6.721013 -1.03136,-1.668773 -4.38326,-0.879816 -5.86412,1.380275 C 307.8152,90.93099 292,134.4521 292,136.59477 c 0,0.8074 0.74509,1.75392 1.65576,2.10337 2.30433,0.88426 4.63907,-2.3103 7.87221,-10.77132 C 304.58884,119.9166 305.91909,119 314.48331,119 c 9.65724,0 10.01268,0.73357 5.89138,12.15878 -4.3571,12.0789 -8.2126,16.79636 -16.56668,20.27045 -4.26441,1.77338 -13.33242,2.62999 -17.80801,1.68224 z m 15.11763,-2.1275 c 5.17113,-1.4364 9.93068,-4.92076 12.98996,-9.50966 C 316.49805,137.88863 322,124.27117 322,121.9404 322,121.42318 318.3638,121 313.91955,121 h -8.08044 l -1.6513,4.25 c -0.90821,2.3375 -2.78451,6.5 -4.16955,9.25 -2.18045,4.32928 -2.92069,5 -5.51826,5 -2.48451,0 -3.05176,-0.44552 -3.30125,-2.5928 -0.27716,-2.38543 13.18328,-41.783915 16.46766,-48.200554 2.01791,-3.942349 5.88954,-5.579269 8.06074,-3.408067 1.5377,1.537696 1.53511,2.028114 -0.0369,7.015238 -2.79753,8.874793 -2.8411,8.813743 6.0497,8.478243 8.85283,-0.33406 8.92013,-0.40017 11.78283,-11.57435 1.39291,-5.437081 1.39887,-6.469568 0.0558,-9.683876 -3.89106,-9.312633 -24.31141,-10.188249 -34.82433,-1.493254 -4.95895,4.101433 -9.04643,12.893291 -17.17194,36.93554 -8.90943,26.36173 -8.7951,31.4121 0.80567,35.59103 3.69362,1.60772 13.64504,1.82918 18.72965,0.41682 z M 389,153.3274 c -9.81439,-1.72288 -13,-4.92706 -13,-13.07578 0,-6.05556 10.53249,-39.85148 16.44905,-52.780587 5.50534,-12.03048 12.94763,-16.704049 26.66552,-16.745273 12.1594,-0.03654 18.63884,5.64198 17.42858,15.27424 -0.74798,5.952994 -13.70405,44.40627 -17.432,51.73768 -3.38009,6.64731 -8.10582,11.54596 -13.11115,13.59088 -3.88808,1.58847 -13.14049,2.67636 -17,1.99884 z m 14.32078,-2.39952 c 5.22298,-1.45034 11.28176,-7.19178 14.63441,-13.86789 C 422.93332,127.14706 435,89.855548 435,84.383793 435,75.653891 430.17818,72 418.65785,72 c -11.64964,0 -19.2542,4.448083 -24.22262,14.168366 -1.3124,2.567602 -5.82193,14.908674 -10.02116,27.424614 -6.45434,19.23734 -7.56312,23.50399 -7.17034,27.59177 0.52856,5.50079 2.69273,8.43872 7.17494,9.74018 4.33677,1.25922 14.37235,1.26079 18.90211,0.003 z m -8.65411,-12.59455 C 394.3,137.96667 394,136.69209 394,135.50095 394,132.17525 408.85839,88.813961 410.69243,86.787369 411.58208,85.804316 413.59023,85 415.15499,85 417.59818,85 418,85.391928 418,87.774994 c 0,3.852709 -14.55968,47.080976 -16.62653,49.364816 -1.65733,1.83134 -5.40251,2.49782 -6.7068,1.19352 z m 5.6409,-2.1207 C 402.0308,134.30848 417,90.922739 417,87.832385 c 0,-2.365419 -3.17017,-2.406814 -5.28585,-0.06902 -2.12737,2.350716 -17.05269,46.912025 -16.33719,48.776605 0.76131,1.98392 2.97175,1.83718 4.93061,-0.32734 z M 536.5,151.58836 c -5.04876,-2.24394 -7.73539,-5.98272 -8.26581,-11.5029 -0.41883,-4.35888 0.8008,-8.75824 9.78143,-35.28263 5.64295,-16.666559 10.70302,-30.86533 11.24459,-31.55283 1.15925,-1.471613 17.29936,-1.771648 18.18537,-0.338054 0.30999,0.50157 -4.2153,14.939726 -10.05619,32.084794 -10.99059,32.26123 -11.4545,34.72085 -6.08754,32.2755 1.95641,-0.8914 3.59063,-4.69524 9.63342,-22.42288 C 564.93779,103.10721 569.85337,88.775 571.85877,83 l 3.64618,-10.5 8.76388,-0.289171 c 6.6938,-0.220868 8.88781,0.03379 9.28856,1.078133 0.64355,1.677051 -18.34228,58.392358 -21.84775,65.264578 -5.09209,9.9827 -12.70177,14.41286 -24.70964,14.38536 -4.125,-0.009 -8.85,-0.6172 -10.5,-1.35054 z m 23,-2.33869 c 4.95869,-2.56179 8.61834,-6.43046 11.47934,-12.135 C 573.65846,131.77281 592,77.378027 592,74.774547 c 0,-1.676805 -0.75833,-1.830097 -7.75,-1.566611 L 576.5,73.5 566,104.22366 c -5.775,16.89802 -11.30707,31.66352 -12.29349,32.81223 -2.317,2.69819 -7.07874,2.3553 -7.49379,-0.53962 -0.158,-1.10205 4.24506,-15.24947 9.78457,-31.43871 5.53952,-16.189242 9.84542,-30.025063 9.56867,-30.746272 C 565.21721,73.402472 562.91544,73 558.06657,73 c -5.68344,0 -7.17488,0.333861 -7.94844,1.779271 -1.86385,3.482639 -19.87596,56.793109 -20.55741,60.843799 -1.1609,6.90066 2.27802,12.75882 8.93928,15.22798 4.61482,1.71059 16.31644,0.81827 21,-1.60138 z m -238.00266,1.5395 C 321.23887,150.08013 326.75873,132.175 333.7637,111 L 346.5,72.5 l 8.76635,-0.289171 c 6.46208,-0.213162 8.8968,0.05076 9.26261,1.004048 0.27294,0.711271 -1.53442,7.34766 -4.01635,14.747531 C 358.03067,95.362279 356,101.80147 356,102.27172 c 0,0.47025 1.41955,0.71399 3.15456,0.54164 3.12224,-0.31015 3.20675,-0.46701 8.25,-15.31336 l 5.09544,-15 8.76635,-0.289171 c 6.44959,-0.21275 8.89635,0.05153 9.25823,1 C 390.79511,73.919873 385.27525,91.825 378.25823,113 L 365.5,151.5 l -8.76635,0.28917 c -6.45553,0.21295 -8.89697,-0.0512 -9.26186,-1.00209 -0.27253,-0.71019 1.75983,-8.02345 4.51635,-16.25169 C 354.74466,126.30716 357,119.4456 357,119.28748 357,119.12937 355.4745,119 353.60999,119 h -3.39001 l -5.35999,16.25 -5.35999,16.25 -8.76635,0.28917 c -6.45789,0.21302 -8.89011,-0.0503 -9.23631,-1 z M 344,134 l 5.5,-16.5 3.75804,-0.31084 c 2.59011,-0.21424 3.93205,0.14264 4.31797,1.14833 0.30797,0.80255 -1.53529,8.08029 -4.09613,16.17275 -2.89614,9.15203 -4.30181,15.06783 -3.71885,15.65079 0.51548,0.51548 4.04262,0.80262 7.8381,0.6381 L 364.5,150.5 376.66051,114 c 6.68828,-20.075 12.20078,-37.531429 12.25,-38.792064 0.0868,-2.22385 -0.14116,-2.283372 -7.66051,-2 L 373.5,73.5 l -5,15 -5,15 -4.25,0.3075 c -5.38934,0.38993 -5.3895,0.37504 -0.17888,-16.152277 2.47887,-7.862608 3.7112,-13.2729 3.15087,-13.833232 -0.50614,-0.506137 -4.01909,-0.785641 -7.80657,-0.62112 L 347.5291,73.5 l -12.25342,37 c -6.73938,20.35 -12.25843,37.80643 -12.26455,38.79206 -0.01,1.5945 0.8433,1.75987 7.73887,1.5 L 338.5,150.5 Z m 76.49333,16.98921 c -0.67684,-1.09515 23.96454,-75.391738 25.78316,-77.73921 0.65909,-0.850748 4.13333,-1.25 10.87734,-1.25 8.15735,0 10.01738,0.2826 10.52242,1.598701 0.33741,0.879286 -0.12924,9.766786 -1.03701,19.75 -1.81057,19.911919 -1.88241,21.227809 -1.11713,20.462529 0.28716,-0.28716 3.21539,-9.20745 6.50719,-19.822872 3.29179,-10.615417 6.48694,-19.905468 7.10033,-20.644558 1.57057,-1.892421 14.73273,-1.866065 15.46068,0.03096 0.29015,0.756117 -5.28837,18.643617 -12.39672,39.75 L 469.26931,151.5 l -10.51515,0.28262 c -7.90348,0.21242 -10.63882,-0.0397 -11.01307,-1.01494 -0.27386,-0.71366 0.35211,-9.84084 1.39102,-20.28262 1.03892,-10.44178 1.75229,-19.88506 1.58526,-20.98506 -0.16704,-1.1 -2.00261,3.4 -4.07906,10 -2.07645,6.6 -5.20703,16.5 -6.95684,22 l -3.18147,10 -7.66592,0.29055 c -4.7672,0.18069 -7.9211,-0.12233 -8.34075,-0.80134 z m 22.59971,-24.82375 c 4.22182,-13.384 8.178,-24.8365 8.7915,-25.45 1.58574,-1.585739 1.47068,1.34242 -1.01973,25.95207 -1.17814,11.64215 -1.86882,21.87965 -1.53483,22.75 0.4869,1.26885 2.24851,1.57944 8.88864,1.56716 4.55476,-0.008 8.77643,-0.34592 9.38148,-0.75 C 468.81491,149.4234 493,77.548757 493,74.749816 493,73.281869 492.05321,73 487.12244,73 c -3.49865,0 -6.28487,0.505929 -6.88391,1.25 -0.55349,0.6875 -4.08184,11.085858 -7.84078,23.107463 -7.01741,22.442697 -9.30749,27.858157 -9.36358,22.142537 -0.0162,-1.65 0.88036,-12.36288 1.99235,-23.806401 1.11199,-11.44352 1.75937,-21.23102 1.43862,-21.75 -0.90274,-1.460675 -18.02874,-1.187403 -19.20212,0.306401 -1.14721,1.460506 -25.29078,73.62665 -25.27421,75.54569 0.008,0.96072 1.74549,1.21925 6.71969,1 L 435.41699,150.5 Z m 33.3101,24.44274 c -0.33005,-0.86011 5.18172,-18.78631 12.24838,-39.83602 L 501.5,72.5 516.06403,72.224332 c 13.80136,-0.261232 14.74395,-0.154545 18,2.03733 5.25793,3.539488 6.38567,6.72204 4.99636,14.100078 -1.51933,8.068572 -6.20377,17.62882 -10.02073,20.45082 -2.96069,2.18893 -3.00816,2.34767 -1.54704,5.17317 2.11989,4.09942 1.91268,6.44007 -1.45112,16.3915 -3.85515,11.40504 -6.21026,15.0495 -11.87853,18.38162 -4.48195,2.63474 -5.29373,2.75419 -20.91135,3.07716 -14.01917,0.28991 -16.33071,0.12146 -16.84848,-1.22781 z m 32.42305,-1.14922 c 8.98047,-2.66692 13.50942,-9.13211 17.71924,-25.29469 1.38737,-5.3265 1.07475,-7.1433 -2.28925,-13.30396 -0.19211,-0.35181 1.26065,-1.63466 3.22835,-2.85077 5.54076,-3.42437 10.48288,-14.795944 10.50465,-24.170666 0.009,-3.968215 -0.43952,-5.040041 -3.01862,-7.21021 C 531.06298,73.340673 527.97873,72.836473 514,73.200513 L 502.5,73.5 490.30274,110 c -6.70849,20.075 -12.22099,37.5125 -12.25,38.75 -0.052,2.21906 0.12354,2.25 12.76576,2.25 8.63431,0 14.51234,-0.50302 18.00769,-1.54102 z m -9.80333,-12.4312 c -1.26828,-0.79557 -1.04794,-2.24156 1.55843,-10.22718 2.9129,-8.92478 3.16184,-9.31306 6.1607,-9.609 4.87878,-0.48146 5.57964,2.02845 2.8398,10.16987 -1.25129,3.71821 -2.90659,7.35967 -3.67843,8.09214 -2.02799,1.9245 -5.17439,2.64436 -6.8805,1.57417 z M 506.14037,132.5 c 2.72209,-4.68885 4.48819,-12.27144 3.16614,-13.59349 -2.51171,-2.51171 -4.88312,0.0162 -7.10741,7.5766 -1.20951,4.1111 -2.1991,7.96551 -2.1991,8.56536 0,2.20697 4.45241,0.35906 6.14037,-2.54847 z M 509,102.69479 c 0,-0.71787 1.0542,-4.43037 2.34266,-8.250003 2.28569,-6.775904 2.42552,-6.944787 5.75,-6.944787 3.01575,0 3.44531,0.332722 3.73777,2.895141 0.42955,3.76362 -2.48846,11.351479 -4.85175,12.616269 C 513.32291,104.43274 509,104.2366 509,102.69479 Z m 5.98221,-0.68527 c 2.12876,-1.13928 5.49151,-10.332653 4.61498,-12.616845 -0.34102,-0.88867 -1.49901,-1.398399 -2.75525,-1.212812 -1.69026,0.249707 -2.66118,1.788523 -4.4133,6.994643 -2.63686,7.835004 -2.08333,9.316604 2.55357,6.835014 z m 115.4692,48.72444 c -0.55801,-1.45414 23.03725,-75.412902 24.69733,-77.413175 1.32302,-1.594146 16.39991,-1.860103 17.36025,-0.306235 0.5489,0.888134 -21.16067,70.83266 -23.81736,76.73545 -0.93322,2.07349 -1.66934,2.25 -9.38353,2.25 -5.83076,0 -8.51829,-0.38417 -8.85669,-1.26604 z m 16.41821,-1.07686 c 1.31622,-1.58595 24.10127,-72.35148 24.11855,-74.9071 0.0101,-1.49818 -0.97783,-1.75 -6.86573,-1.75 -4.29124,0 -7.26122,0.470064 -7.89781,1.25 C 654.90658,75.864852 632,146.67668 632,149.13636 632,150.7739 632.83441,151 638.87756,151 c 4.53584,0 7.25703,-0.45724 7.99206,-1.3429 z m -68.24368,0.54667 c -0.29631,-0.47943 5.07937,-18.04103 11.94594,-39.02577 14.43705,-44.120696 11.2094,-39.781481 28.94114,-38.908194 C 635.39911,73.052195 640,76.08376 640,85.768839 c 0,8.301706 -5.25768,20.960741 -9.69108,23.333421 -1.82871,0.9787 -2.26953,1.81405 -1.7682,3.35073 1.71545,5.25825 1.45782,8.54942 -1.37356,17.54701 -1.64421,5.225 -3.71703,12.0875 -4.60625,15.25 l -1.61678,5.75 h -8.50345 c -6.63205,0 -8.62999,-0.32976 -9.07843,-1.49838 -0.31624,-0.82411 1.29097,-7.36281 3.57159,-14.53043 2.28062,-7.16763 3.86153,-13.49327 3.51313,-14.05699 -0.34839,-0.56371 -1.37899,-0.88241 -2.29021,-0.70821 -1.16564,0.22283 -3.13892,4.75983 -6.65676,15.30536 l -5,14.98865 -8.66766,0.28773 c -4.76722,0.15825 -8.9101,-0.10453 -9.2064,-0.58396 z m 21.53467,-15.1633 c 2.65644,-7.95274 5.45684,-15.08649 6.22313,-15.85278 2.02211,-2.02211 5.61626,-0.59973 5.61626,2.22262 0,1.25155 -1.56672,7.18373 -3.4816,13.18262 C 603.52704,150.22972 603.47601,150 611.94098,150 c 4.46145,0 7.22544,-0.44654 7.73725,-1.25 0.84414,-1.32516 3.91339,-11.16627 7.49347,-24.02674 l 2.16488,-7.77673 -2.25634,-3.05188 c -1.241,-1.67853 -2.10423,-3.16335 -1.9183,-3.2996 0.18593,-0.13626 1.97158,-1.22922 3.96811,-2.42882 4.14004,-2.4875 7.40018,-8.968603 9.08001,-18.050906 1.38185,-7.471163 -0.56646,-12.530638 -5.64195,-14.651313 C 627.99144,73.551755 605.73334,73.383515 604.25449,75.25 603.18781,76.596272 580,147.04902 580,148.94369 c 0,0.78013 2.42176,1.04817 7.66537,0.84837 L 595.33073,149.5 Z M 606,103.69417 c 0,-2.29099 4.20369,-14.14249 5.51445,-15.546949 C 613.64959,85.859468 617,87.662639 617,91.099506 c 0,3.442161 -2.36137,9.537344 -4.69313,12.113894 C 610.43525,105.28153 606,105.61962 606,103.69417 Z m 4.78072,-0.53749 C 612.17521,102.2718 616,92.93791 616,90.419723 c 0,-1.029722 -0.73402,-1.450362 -2.16253,-1.239274 -1.68482,0.248961 -2.65874,1.793977 -4.40883,6.994057 -2.49971,7.427474 -2.15499,9.207614 1.35208,6.982174 z"
         id="path14" />
      <path
         style="fill:#a2a2a1"
         d="m 183.68775,306.49831 c -12.12328,-3.3326 -24.21372,-12.6937 -29.90484,-23.15401 -7.34979,-13.50895 -7.73108,-30.39268 -0.99746,-44.16849 8.92411,-18.25719 30.00575,-29.29177 49.96455,-26.1525 12.4572,1.95936 26.08709,10.23934 31.86967,19.36041 1.58418,2.49879 3.21783,4.55969 3.63033,4.57977 C 238.6625,236.98357 239,208.425 239,173.5 V 110 h -4.3 c -2.365,0 -4.84,-0.54 -5.5,-1.2 -0.89903,-0.89903 -1.2,-12.898892 -1.2,-47.845012 0,-43.918938 0.10688,-46.741735 1.82874,-48.3 C 231.33373,11.292989 233.96756,11 244.7063,11 c 9.72101,0 13.33394,0.343562 14.16685,1.347158 0.80573,0.970846 1.18911,32.18676 1.37245,111.750002 L 260.5,234.5 l 2.17738,0.31003 c 4.52695,0.64459 4.79452,2.08191 5.32262,28.59121 l 0.5,25.09876 58.14559,0.5 c 54.81715,0.47138 58.26281,0.60611 60.19332,2.35369 4.5117,4.08419 3.02915,13.88837 -2.3025,15.22653 -1.42747,0.35827 -34.64462,0.26179 -73.8159,-0.21441 L 239.5,305.5 239,294.07736 l -0.5,-11.42264 -2.86703,4.14527 c -11.48743,16.60897 -33.21312,24.84764 -51.94522,19.69832 z m 28.53702,-2.44914 c 8.08831,-3.07154 16.90545,-9.91354 21.8974,-16.99212 2.34935,-3.33138 4.61868,-6.05705 5.04295,-6.05705 0.42428,0 0.89819,5.2875 1.05314,11.75 l 0.28174,11.75 71,0.79568 c 48.38408,0.54222 71.7231,0.4665 73.27008,-0.23771 4.73915,-2.15736 4.88337,-11.56752 0.21558,-14.06565 C 383.82076,290.36889 361.75364,290 325.62476,290 280.71752,290 267.94078,289.72613 267.30902,288.75 266.86406,288.0625 266.275,276.02892 266,262.00872 l -0.5,-25.49128 -3,-0.51851 -3,-0.51851 -0.2544,-110.39305 c -0.18334,-79.556026 -0.56672,-110.769368 -1.37245,-111.740212 -1.74452,-2.102019 -25.17628,-1.901168 -27.31156,0.234107 -1.40414,1.404141 -1.55216,6.808789 -1.32143,48.25 L 229.5,108.5 l 5,0.5 5,0.5 0.25724,65.25 c 0.15311,38.83545 -0.11204,65.25 -0.65498,65.25 -0.50172,0 -2.03671,-1.91881 -3.4111,-4.26402 -3.82361,-6.5245 -12.88057,-14.49387 -20.2899,-17.85342 -27.15902,-12.31449 -59.43463,3.90588 -65.461,32.89796 -4.9863,23.98842 9.95192,47.90165 34.17207,54.70292 7.42269,2.08437 20.61979,1.41106 28.11244,-1.43427 z m -22.74336,-28.44274 c -4.25797,-1.85531 -9.26049,-7.91191 -10.06147,-12.18151 -1.51766,-8.08982 4.30692,-17.19719 12.39046,-19.37387 8.48369,-2.28442 17.62105,2.98156 20.2189,11.6524 1.65968,5.53954 0.54571,10.57206 -3.313,14.96689 -5.25425,5.98426 -12.53899,7.85368 -19.23489,4.93609 z M 203.03811,273.75 C 207.80234,271.34754 212,264.95581 212,260.10383 c 0,-4.13268 -3.90433,-10.88159 -7.62568,-13.18151 -7.78269,-4.80996 -18.33456,-1.76736 -22.30337,6.43111 -2.64311,5.45994 -2.60781,8.15817 0.17905,13.68468 2.42203,4.80304 8.80285,8.96189 13.75,8.96189 1.41692,0 4.58407,-1.0125 7.03811,-2.25 z m 110.25513,-10.37673 c -5.01959,-2.47506 -5.89711,-6.61432 -3.36157,-15.85647 1.13758,-4.14651 2.06896,-7.64659 2.06974,-7.77796 7.7e-4,-0.13136 -3.22609,-0.0138 -7.1708,0.26116 l -7.17221,0.5 -3.5792,10.52262 c -1.96856,5.78745 -3.94326,11.07495 -4.38822,11.75 -1.10768,1.6805 -12.58937,1.65575 -13.23569,-0.0285 -0.26506,-0.69075 3.68656,-13.62825 8.78139,-28.75 L 294.5,206.5 h 13 13 l -0.11079,3.71306 c -0.0609,2.04218 -0.8588,4.85468 -1.77305,6.25 -1.47391,2.24947 -2.34233,2.53694 -7.66396,2.53694 -6.4071,0 -6.24187,-0.13299 -8.38606,6.75 -0.66857,2.14617 -0.44629,2.25 4.81678,2.25 4.21519,0 5.74889,0.41311 6.49707,1.75 1.07292,1.91716 0.7901,2.4314 5.36238,-9.75 3.93629,-10.48701 12.23436,-15.78517 23.0894,-14.74214 6.94484,0.66731 10.22975,4.12414 9.99393,10.51698 -0.17497,4.74323 -8.62717,31.00293 -12.23886,38.0243 -2.32333,4.5167 -6.62719,8.71104 -10.40194,10.13724 -4.11173,1.55352 -12.69715,1.25858 -16.39166,-0.56311 z m 17.39062,-1.31673 c 5.61157,-2.54774 8.30976,-6.94406 13.84375,-22.55654 5.65687,-15.95913 7.51736,-23.66073 6.5839,-27.2544 -1.07484,-4.13797 -6.29343,-6.47764 -13.19936,-5.91772 -7.09229,0.57504 -11.2749,2.74431 -14.36446,7.45001 -2.45973,3.74639 -12.71218,32.70607 -13.88561,39.22211 -0.76108,4.22623 0.92111,7.97676 4.35763,9.71555 3.64339,1.84347 11.86873,1.51818 16.66415,-0.65901 z m -8.30273,-9.50572 c -0.61446,-1.60126 8.90626,-30.72369 11.21364,-34.30082 1.6523,-2.56156 4.19641,-2.95776 5.03076,-0.78346 0.65634,1.71039 -8.92666,31.09067 -11.1991,34.33503 -1.7609,2.51405 -4.22752,2.88035 -5.0453,0.74925 z m 4.45563,-1.30082 c 1.88569,-3.63779 11.37394,-33.37263 10.82442,-33.92216 -1.86906,-1.86905 -4.02535,2.26313 -9.05395,17.35044 C 325.52325,243.93112 323,251.83876 323,252.25082 c 0,1.48102 2.94902,0.71177 3.83676,-1.00082 z m -36.04446,6.5 c 1.06479,-2.8875 2.73167,-7.725 3.70416,-10.75 2.45857,-7.64752 2.88495,-8 9.67701,-8 5.86675,0 5.94434,-0.0377 7.43975,-3.61673 C 313.8359,230.06365 312.98911,229 306.53138,229 c -6.20942,0 -6.36088,-0.26113 -3.89552,-6.71657 L 304.27172,218 h 5.79271 c 3.79797,0 6.3057,-0.51299 7.28243,-1.48971 1.73972,-1.73973 3.08458,-7.00318 2.16822,-8.48589 -0.956,-1.54684 -23.01976,-1.34164 -24.25692,0.2256 -1.54825,1.96133 -18.26026,52.93759 -17.66877,53.89464 0.29076,0.47045 2.94475,0.85536 5.89778,0.85536 h 5.36913 z m 284.52152,5.29977 c -1.7524,-1.06851 -3.71599,-2.93272 -4.36355,-4.14268 -1.39372,-2.60421 -0.80868,-9.34378 1.16938,-13.47085 1.32504,-2.76462 1.75721,-2.93624 7.39382,-2.93624 H 585.5 l -0.32151,5.25 c -0.33274,5.43349 0.88036,6.87708 2.78633,3.31574 1.8855,-3.5231 1.10135,-7.20764 -2.60991,-12.26339 -5.08761,-6.93071 -6.46321,-11.36095 -5.23952,-16.87425 2.8463,-12.82383 16.65293,-20.45359 27.60651,-15.25578 5.27359,2.50248 6.82475,6.93545 4.82902,13.80053 -1.66137,5.71489 -2.71772,6.53549 -8.38271,6.51184 -5.40323,-0.0226 -6.55676,-1.1 -5.75473,-5.37518 0.54421,-2.9009 0.36891,-3.60951 -0.89292,-3.60951 -0.86353,0 -2.00899,1.15446 -2.54545,2.56547 -1.11332,2.92824 -0.41617,4.62345 4.63015,11.25892 1.80881,2.37841 3.80327,5.88343 4.43214,7.78893 2.51673,7.62578 -3.3911,19.82824 -11.3491,23.44123 -5.52945,2.51042 -13.25296,2.50829 -17.37448,-0.005 z m 18.93288,-2.01664 c 4.52041,-3.09744 7.41341,-7.48025 8.67224,-13.13821 1.32464,-5.95373 0.22187,-9.71581 -4.76387,-16.2518 -2.15777,-2.82872 -4.23771,-6.17765 -4.62208,-7.44208 -0.90281,-2.96994 1.8008,-7.20104 4.60135,-7.20104 1.86089,0 2.01377,0.39695 1.40424,3.64604 -0.78568,4.18804 0.27398,5.31489 5.02029,5.33865 4.28039,0.0214 6.20776,-1.78604 7.32523,-6.8695 1.5888,-7.2276 -1.46371,-11.5236 -9.06445,-12.75703 C 591.86372,204.58026 581,214.12363 581,225.5259 c 0,5.11265 0.77847,6.95181 5.65827,13.3679 3.97842,5.23094 4.52821,10.72248 1.36049,13.58922 -1.55902,1.4109 -2.28507,1.54085 -3.40692,0.6098 -1.10029,-0.91316 -1.20711,-1.97476 -0.46804,-4.65145 1.27333,-4.61162 0.55971,-5.44137 -4.67976,-5.44137 -3.55693,0 -4.72367,0.46661 -5.98669,2.39423 -4.0211,6.13697 -2.55031,14.75146 2.94377,17.24181 4.60621,2.0879 13.62242,1.27714 17.82558,-1.60291 z m -251.82483,1.62386 c -0.61275,-1.59681 14.9618,-50.84135 17.20729,-54.40699 1.2885,-2.04604 2.1883,-2.25 9.92601,-2.25 9.46883,0 14.61788,1.58631 16.48731,5.07938 2.40232,4.48877 -0.2413,15.95636 -4.90178,21.26313 -0.98121,1.11729 -1.68114,3.87252 -1.77823,7 -0.0881,2.83662 -1.46986,9.43249 -3.07067,14.65749 l -2.91055,9.5 -6.69063,0.29569 c -6.40071,0.28288 -6.68997,0.19621 -6.67561,-2 0.008,-1.26263 1.13319,-5.89569 2.49986,-10.29569 2.78345,-8.96132 3.02163,-10.8455 1.29836,-10.27108 -0.65273,0.21758 -2.82624,5.31758 -4.83002,11.33334 l -3.64326,10.93774 -6.18292,0.29805 c -4.66152,0.22472 -6.31881,-0.0561 -6.73516,-1.14106 z m 15.58792,-10.36678 c 3.63225,-10.56601 5.04605,-12.99177 6.90308,-11.84406 1.63729,1.0119 1.33675,3.46964 -1.41287,11.55385 -3.7069,10.89872 -3.63021,11.15953 3.1757,10.7999 l 5.6757,-0.2999 3.40127,-11 c 2.86584,-9.2684 3.23013,-11.47225 2.31414,-14 -0.97006,-2.67697 -0.82285,-3.19303 1.36716,-4.79271 C 382.37466,230.5593 386,221.41013 386,216.1368 c 0,-2.77754 -0.68771,-4.43494 -2.57776,-6.21249 C 381.04581,207.68935 380.0571,207.5 370.7633,207.5 h -10.08118 l -8.84106,26.48574 C 346.97848,248.55289 343,261.06285 343,261.78564 c 0,0.96796 1.51479,1.23516 5.75,1.01426 L 354.5,262.5 Z m 8.56738,-23.16535 c -0.7087,-1.14669 2.4246,-10.41727 3.83228,-11.3387 0.5998,-0.39261 1.66062,-0.14397 2.35737,0.55254 0.99105,0.99069 1.01464,2.01683 0.10839,4.71383 -1.79515,5.34239 -4.8994,8.33538 -6.29804,6.07233 z m 5.08721,-6.44411 C 372.03087,220.42234 371.86102,219 371.22484,219 c -1.21311,0 -4.3355,8.55601 -3.44673,9.44477 1.12878,1.12878 3.28723,-2.07258 3.88627,-5.76402 z m 5.701,39.82902 c -0.51423,-1.34006 15.16373,-49.52285 17.81802,-54.75977 0.67549,-1.33276 2.14223,-1.75 6.15178,-1.75 7.20896,0 7.80757,0.86751 5.56674,8.0673 -1.01375,3.2572 -1.61092,6.52745 -1.32704,7.26723 0.28387,0.73977 -0.17934,1.92224 -1.02937,2.6277 -2.16997,1.80092 -2.04897,-0.1858 0.45449,-7.46223 3.06149,-8.89837 2.87925,-9.5 -2.87756,-9.5 -2.70912,0 -5.31623,0.55572 -5.86428,1.25 -1.88838,2.3922 -18.23474,53.17342 -17.38874,54.01942 0.46836,0.46836 3.05184,0.71184 5.74107,0.54107 L 389.5,262.5 393,252.33085 c 5.10591,-14.83507 5.30795,-14.81015 5.42696,0.66915 l 0.073,9.5 h 6 6 l 0.27747,-14.87938 0.27748,-14.87938 8.45792,-11.98974 c 4.65186,-6.59435 8.21294,-12.38613 7.91351,-12.87061 -0.60879,-0.98505 -8.42753,-1.20142 -10.78092,-0.29833 -0.83497,0.3204 -3.40836,3.48381 -5.71866,7.02979 -2.3103,3.54598 -4.39444,6.25334 -4.63144,6.01635 -0.23699,-0.23699 1.76556,-3.5129 4.4501,-7.2798 l 4.881,-6.8489 6.19971,-0.29805 c 4.82314,-0.23188 6.32944,0.04 6.78396,1.22446 0.36033,0.93898 -2.61494,6.03011 -7.76294,13.28355 L 412.5,232.471 412,247.9855 411.5,263.5 l -6.71965,0.295 c -7.78672,0.34184 -7.59332,0.61401 -8.02602,-11.295 l -0.25433,-7 -3.07937,9 -3.07937,9 -6.18357,0.29805 c -4.91052,0.23669 -6.3089,-0.0285 -6.79231,-1.28828 z M 414,262.1368 c 0,-2.57801 16.71023,-53.08273 18.12871,-54.79188 1.71801,-2.07009 11.75667,-1.80718 12.57654,0.32936 0.36221,0.94389 -2.26894,10.44359 -6.03138,21.77617 C 435.00324,240.50649 432,250.10306 432,250.77617 c 0,0.79836 1.70107,1.22383 4.89301,1.22383 5.8639,0 6.44176,0.9632 4.20844,7.01478 L 439.44619,263.5 426.7231,263.77988 C 414.73956,264.04349 414,263.94798 414,262.1368 Z m 24.92595,-0.54757 c 0.64396,-0.77592 1.43293,-3.02592 1.75328,-5 L 441.26168,253 h -5.0475 c -3.14685,0 -5.20602,-0.47069 -5.46844,-1.25 -0.23151,-0.6875 2.66048,-10.475 6.42665,-21.75 3.76617,-11.275 6.62312,-21.08619 6.34878,-21.80265 -0.34314,-0.89611 -2.11545,-1.20819 -5.67901,-1 l -5.18021,0.30265 -8.83097,26.48574 C 418.97394,248.55289 415,261.04039 415,261.73574 c 0,1.9194 22.32484,1.7827 23.92595,-0.14651 z m 3.53711,1.16077 c -0.55991,-1.47601 15.96525,-53.35623 17.63687,-55.3704 1.62235,-1.95482 11.7701,-1.88187 12.52679,0.09 0.50667,1.32036 -14.57081,50.52469 -16.78612,54.78036 -0.71358,1.37082 -2.2102,1.75 -6.90717,1.75 -3.8774,0 -6.16375,-0.4417 -6.47037,-1.25 z m 12.26443,-1 c 1.62247,-2.08569 17.40325,-52.72944 16.75668,-53.77561 -0.72309,-1.17 -10.15482,-1.31631 -10.86418,-0.16854 -1.33288,2.15664 -17.44286,53.67173 -17.00565,54.37916 0.80588,1.30394 10.04165,0.94242 11.11315,-0.43501 z M 460,262.29605 c 0,-2.30014 16.94247,-53.3838 18.25664,-55.04605 0.74676,-0.94455 7.56377,-1.25 27.89719,-1.25 30.09042,0 29.13617,-0.24899 26.9544,7.03309 -1.32733,4.43023 -2.15949,5.12753 -7.07217,5.92607 l -3.53187,0.57409 -7.0021,21.02765 c -3.85115,11.56521 -7.36615,21.57023 -7.81111,22.23337 -1.11073,1.65539 -12.5963,1.61696 -13.23235,-0.0443 -0.26323,-0.6875 2.67589,-10.68795 6.53138,-22.22322 C 504.84551,228.99151 508,219.42901 508,219.27678 508,219.12455 503.57123,219 498.15829,219 h -9.84171 l -1.15829,3.86602 c -1.59322,5.3177 -1.72632,5.13398 3.71927,5.13398 6.14444,0 7.54932,1.43427 5.97693,6.10196 -1.76742,5.24668 -2.57904,5.78568 -9.18916,6.10252 L 481.5,240.5 l -4,11.5 -4,11.5 -6.75,0.29569 c -5.93663,0.26006 -6.75,0.0794 -6.75,-1.49964 z M 472.74383,261.75 c 0.5438,-0.6875 2.46024,-5.75 4.25877,-11.25 1.79852,-5.5 3.4701,-10.225 3.71463,-10.5 0.24453,-0.275 3.40263,-0.725 7.018,-1 l 6.57341,-0.5 1.33332,-3.86549 c 0.73332,-2.12603 1.08732,-4.26353 0.78666,-4.75 C 496.12796,229.39803 493.43352,229 490.44098,229 c -6.16126,0 -6.70806,-1.0317 -3.99201,-7.53212 L 487.89795,218 h 10.55102 c 5.80307,0 10.55103,0.34955 10.55103,0.77678 0,0.42723 -3.13753,10.16537 -6.9723,21.64032 -3.83476,11.47494 -6.7332,21.25039 -6.44098,21.72322 0.29222,0.47282 2.94226,0.85968 5.88896,0.85968 h 5.35765 l 7.41064,-22.25 7.41063,-22.25 3.56662,-0.30404 c 4.38127,-0.37349 6.62661,-2.69667 6.99698,-7.23957 L 532.5,207.5 506.386,207.23366 c -21.60053,-0.2203 -26.3181,-0.0204 -27.29492,1.1566 C 477.8429,209.89422 461,259.55192 461,261.72794 c 0,1.71487 10.38942,1.73438 11.74383,0.0221 z M 528,262.32185 c 0,-1.84278 27.10158,-51.50439 29.78123,-54.57185 2.07329,-2.37336 15.96482,-2.57535 16.85901,-0.24514 0.65395,1.70416 -8.43239,54.55986 -9.59192,55.79671 -0.4133,0.44086 -3.63075,0.66586 -7.14989,0.5 -6.96933,-0.32848 -7.20617,-0.63236 -5.54744,-7.11759 0.68899,-2.69379 0.58019,-2.80229 -2.50696,-2.5 -2.62771,0.25732 -3.7139,1.15196 -5.84715,4.81602 l -2.61994,4.5 -6.68847,0.29569 C 528.84565,264.05399 528,263.86765 528,262.32185 Z M 543.5,258 c 2.39382,-4.72398 2.75098,-5 6.46973,-5 h 3.93604 l -0.59218,5 -0.59217,5 h 5.58027 c 3.06915,0 5.79957,-0.35483 6.0676,-0.7885 0.98215,-1.58916 9.66299,-52.68499 9.16937,-53.97135 -0.37357,-0.9735 -2.42558,-1.24979 -7.68147,-1.03425 L 558.68546,207.5 543.88475,234 c -8.14039,14.575 -14.81962,27.0625 -14.84273,27.75 -0.0291,0.8654 1.79887,1.25 5.94113,1.25 h 5.98316 z m 9.46617,-16.02091 c -1.1108,-0.68651 -1.12621,-1.34003 -0.0862,-3.65748 2.26655,-5.05076 6.28346,-11.49156 6.82755,-10.94746 0.91892,0.91892 -2.82573,14.45725 -4.13812,14.96086 -0.6879,0.26397 -1.85933,0.10381 -2.60319,-0.35592 z m 3.61242,-3.43618 c 1.05488,-4.20298 -0.0489,-4.87691 -1.83907,-1.12288 -1.44662,3.0336 -1.48361,3.57997 -0.24239,3.57997 0.80562,0 1.74228,-1.10569 2.08146,-2.45709 z m 47.82484,24.06603 c -0.59994,-1.56341 15.02092,-50.85788 17.22573,-54.35894 1.18994,-1.88953 2.29944,-2.25 6.92528,-2.25 3.78251,0 5.6756,0.43591 6.04222,1.39129 0.45413,1.18345 -15.51608,53.05128 -17.14723,55.69053 -0.95331,1.5425 -12.43229,1.12641 -13.046,-0.47288 z M 624.73551,237.5 c 4.52953,-13.75 8.35453,-26.125 8.5,-27.5 0.24611,-2.32629 -0.0752,-2.52157 -4.62502,-2.81049 -2.68923,-0.17077 -5.29188,0.0919 -5.78366,0.58366 -1.38123,1.38123 -17.82545,53.42005 -17.20031,54.43154 0.30375,0.49148 2.87455,0.75899 5.71288,0.59445 L 616.5,262.5 Z M 620,262.39972 c 0,-1.75503 27.17081,-51.56188 29.81271,-54.64972 2.09722,-2.45122 15.93542,-2.56993 16.86608,-0.14468 0.5604,1.46038 -8.21945,53.84244 -9.32426,55.63005 -0.83605,1.35277 -13.34149,0.90225 -13.47295,-0.48537 -0.18612,-1.9646 -0.17761,-2.06426 0.47522,-5.56243 0.60253,-3.22863 0.53775,-3.30452 -2.56091,-3 -2.57129,0.2527 -3.67995,1.17275 -5.79901,4.81243 l -2.61994,4.5 -6.68847,0.29569 C 620.95651,264.04909 620,263.84946 620,262.39972 Z M 635.5,258 c 2.40695,-4.74988 2.73466,-5 6.55129,-5 h 4.0176 l -0.66328,5 -0.66327,5 h 5.56981 c 3.0634,0 5.79113,-0.35809 6.06162,-0.79576 1.03672,-1.67744 9.72127,-52.51418 9.2022,-53.86686 -0.41841,-1.09035 -2.22787,-1.35642 -7.69485,-1.13148 l -7.1478,0.2941 -14.86666,26.79951 C 627.69,249.03924 621,261.52674 621,262.04951 621,262.57228 623.69242,263 626.98315,263 h 5.98316 z m 9.57486,-15.95373 c -0.93208,-0.57606 -0.44109,-2.36975 1.9592,-7.15748 3.63506,-7.25063 3.75753,-7.43053 4.53166,-6.6564 0.31115,0.31115 0.13128,2.29865 -0.39971,4.41667 -0.531,2.11802 -1.23169,5.0388 -1.5571,6.49064 -0.64506,2.878 -2.57669,4.11628 -4.53405,2.90657 z m 3.50373,-3.50336 c 1.05488,-4.20298 -0.0489,-4.87691 -1.83907,-1.12288 -1.44662,3.0336 -1.48361,3.57997 -0.24239,3.57997 0.80562,0 1.74228,-1.10569 2.08146,-2.45709 z M 54.541605,209.18943 c -0.339517,-1.54582 -0.20595,-3.90832 0.296817,-5.25 0.781454,-2.08539 0.968361,-1.6774 1.28785,2.81119 0.399226,5.60885 -0.563115,7.0899 -1.584667,2.43881 z M 137.5,202 c -1.24523,-0.5351 3.49579,-0.88595 12.56291,-0.92971 L 164.62582,201 l 2.77653,-2.89807 2.77653,-2.89808 -4.58944,-6.84125 c -4.85605,-7.23867 -5.43456,-9.66116 -3.05764,-12.80373 C 163.33931,174.49125 164,172.92515 164,172.07865 164,170.28901 147.11344,153 145.36546,153 c -0.64693,0 -3.06139,1.575 -5.36546,3.5 -4.54181,3.79457 -4.82072,3.89957 -6.88535,2.59202 -2.56117,-1.62201 -0.24572,-5.43933 9.35143,-15.41705 7.35232,-7.64387 9.9568,-9.75288 11.73189,-9.5 3.38224,0.48182 3.33903,3.33009 -0.12191,8.03624 -1.69183,2.30054 -3.07606,4.73246 -3.07606,5.40428 0,0.67181 4.14694,5.06518 9.21542,9.76303 8.21006,7.60971 9.38981,8.38373 10.81396,7.09489 0.8792,-0.79567 5.55071,-6.85434 10.38112,-13.46373 8.42676,-11.5302 8.73822,-12.1443 7.68775,-15.15768 C 185.4587,125.41158 158.46991,55.281341 157.69469,54.25 156.96532,53.279655 145.74282,53 107.53254,53 59.766154,53 58.25703,52.941497 56.520309,51.022441 54.284065,48.551419 54.973608,41.223684 57.624799,39.285086 59.001686,38.278282 70.369327,38 110.1197,38 c 56.36891,0 52.28286,-0.529305 55.16286,7.145762 0.89863,2.394831 11.55268,30.370799 23.67566,62.168818 12.12298,31.79802 22.03229,58.57302 22.02069,59.5 C 210.96731,167.74156 209.9074,165.575 208.62356,162 198.22867,133.05426 162.47432,41.241002 161.2111,40.25 158.89499,38.432999 61.153403,38.436126 58.668296,40.25328 56.618849,41.751873 55.521905,47.891216 56.926805,50 c 0.858641,1.288839 8.075058,1.570387 51.262325,2 l 50.263,0.5 16.2561,42.5 c 8.94086,23.375 16.26413,43.02912 16.27394,43.67583 C 191.00464,140.15777 171.11312,167 169.99245,167 c -0.95721,0 -19.15063,-16.58299 -20.18268,-18.39617 -0.38166,-0.67053 0.93212,-3.54032 2.93881,-6.41942 2.76842,-3.97201 3.3519,-5.48393 2.46043,-6.3754 -1.85179,-1.85179 -4.81298,0.43106 -14.05757,10.8373 -5.25466,5.91495 -8.13837,9.94537 -7.78138,10.87566 0.86129,2.24449 2.25623,1.81045 6.49826,-2.02197 2.13074,-1.925 4.50298,-3.5 5.27164,-3.5 0.76866,0 5.86952,4.4888 11.33525,9.97512 l 9.93769,9.97512 -2.20645,2.98439 C 162.9929,176.57604 162,178.6823 162,179.61519 c 0,0.9329 2.10846,4.78202 4.68547,8.5536 l 4.68546,6.85742 -2.03186,2.7369 c -1.11753,1.50529 -3.11349,3.29276 -4.43547,3.97215 -2.76512,1.42105 -24.23015,1.62842 -27.4036,0.26474 z"
         id="path13" />
      <path
         style="fill:#f1aa28"
         d="m 57.171333,253.5 c -0.860992,-1.35211 -1.52544,-35.95299 -0.749762,-39.04354 L 57.038104,212 h 55.380496 55.3805 l 20.9712,-21.5 c 11.53416,-11.825 21.27913,-21.5 21.65548,-21.5 0.37635,0 1.82381,2.5875 3.21656,5.75 1.39276,3.1625 5.34783,11.375 8.78904,18.25 7.81183,15.60677 9.0598,19.21371 7.59483,21.95103 -1.47604,2.758 -3.97485,2.57878 -8.63666,-0.61945 -9.06294,-6.21762 -24.54172,-8.90922 -36.68373,-6.37891 -9.32004,1.94223 -21.14926,8.45373 -28.24109,15.54556 -6.87212,6.87212 -13.21937,18.25356 -14.18194,25.43006 -0.31311,2.33443 -1.06733,4.43421 -1.67604,4.66617 -2.52337,0.9616 -82.820837,0.87068 -83.435417,-0.0945 z M 56,186.5 c 0,-14.16667 0.172043,-15.67204 2,-17.5 1.91537,-1.91537 3.333333,-2 33.509787,-2 29.960733,0 31.591553,0.0955 33.172903,1.94238 1.97416,2.30565 11.52244,30.9167 10.74016,32.18246 C 135.12536,201.60618 117.13352,202 95.440983,202 H 56 Z"
         id="path12" />
      <path
         style="fill:#e35d5e"
         d="m 198,180.62244 c 0,-0.20765 0.7875,-0.99515 1.75,-1.75 1.58606,-1.24387 1.62143,-1.2085 0.37756,0.37756 C 198.82119,180.91575 198,181.44548 198,180.62244 Z m 84.38798,-30.05529 c -9.60077,-4.17893 -9.7151,-9.2293 -0.80567,-35.59103 8.12551,-24.042249 12.21299,-32.834107 17.17194,-36.93554 10.51292,-8.694995 30.93327,-7.819379 34.82433,1.493254 1.34303,3.214308 1.33707,4.246795 -0.0558,9.683876 -2.8627,11.17418 -2.93,11.24029 -11.78283,11.57435 -8.8908,0.3355 -8.84723,0.39655 -6.0497,-8.478243 1.57205,-4.987124 1.57464,-5.477542 0.0369,-7.015238 -2.1712,-2.171202 -6.04283,-0.534282 -8.06074,3.408067 -3.28438,6.416639 -16.74482,45.815124 -16.46766,48.200554 0.24949,2.14728 0.81674,2.5928 3.30125,2.5928 2.59757,0 3.33781,-0.67072 5.51826,-5 1.38504,-2.75 3.26134,-6.9125 4.16955,-9.25 l 1.6513,-4.25 h 8.08044 c 4.44425,0 8.08045,0.42318 8.08045,0.9404 0,2.33077 -5.50195,15.94823 -7.89241,19.53391 -3.05928,4.5889 -7.81883,8.07326 -12.98996,9.50966 -5.08461,1.41236 -15.03603,1.1909 -18.72965,-0.41682 z m 19.36162,-1.08543 c 8.2059,-2.43689 15.49979,-12.47865 17.94523,-24.70587 L 320.25,122 h -6.68123 -6.68123 l -1.96319,4.75 c -1.07975,2.6125 -2.96694,6.775 -4.19377,9.25 -2.07122,4.1785 -2.50818,4.5 -6.11603,4.5 -5.95371,0 -6.19832,-2.19697 -1.68595,-15.14245 13.90282,-39.885693 15.3446,-42.817432 20.73966,-42.172127 5.05312,0.604405 5.24924,2.446367 1.60403,15.064577 -0.44457,1.538916 0.27777,1.75 5.98863,1.75 7.31643,0 7.72226,-0.29855 10.09736,-7.428139 3.37234,-10.123142 1.35781,-16.141918 -6.15636,-18.393218 -8.48306,-2.541586 -19.63957,-0.367314 -25.78024,5.024263 -4.71114,4.136441 -7.3712,9.63629 -14.83368,30.669684 -9.4022,26.50058 -10.3235,31.65136 -6.52509,36.48026 3.60278,4.58019 14.12099,5.96958 23.68669,3.12887 z m 82.66907,1.44321 c -4.48221,-1.30146 -6.64638,-4.23939 -7.17494,-9.74018 -0.39278,-4.08778 0.716,-8.35443 7.17034,-27.59177 4.19923,-12.51594 8.70876,-24.857012 10.02116,-27.424614 C 399.40365,76.448083 407.00821,72 418.65785,72 430.17818,72 435,75.653891 435,84.383793 c 0,5.471755 -12.06668,42.763267 -17.04481,52.676197 -3.35265,6.67611 -9.41143,12.41755 -14.63441,13.86789 -4.52976,1.25784 -14.56534,1.25627 -18.90211,-0.003 z m 23.13881,-3.40574 c 5.55845,-3.25748 8.36965,-7.4564 12.80702,-19.12912 C 426.34505,112.65794 434,88.006029 434,84.478483 c 0,-8.553626 -5.89826,-12.196269 -18.09306,-11.1739 -8.98021,0.752868 -14.86003,4.021861 -18.90411,10.510082 C 393.44289,89.526144 378,135.38399 378,140.24378 c 0,4.33027 3.065,8.40331 7.31291,9.71805 5.72668,1.77242 17.20235,0.51229 22.24457,-2.44264 z m -12.34478,-7.63621 c -1.66731,-0.61678 -2.21313,-1.62753 -2.21443,-4.10076 -0.002,-3.81752 13.21062,-43.952214 15.95505,-48.465067 2.47016,-4.061856 6.67526,-5.133017 9.41102,-2.39726 l 2.03952,2.039522 -7.69237,23.270295 c -4.23081,12.79866 -8.55086,24.66832 -9.60012,26.37703 -2.1316,3.47131 -4.6017,4.49587 -7.89867,3.27624 z m 6.16077,-2.74317 C 403.44032,134.85597 418,91.627703 418,87.774994 418,85.391928 417.59818,85 415.15499,85 c -1.56476,0 -3.57291,0.804316 -4.46256,1.787369 C 408.85839,88.813961 394,132.17525 394,135.50095 c 0,1.19114 0.3,2.46572 0.66667,2.83238 1.30429,1.3043 5.04947,0.63782 6.7068,-1.19352 z M 538.5,150.85105 c -6.66126,-2.46916 -10.10018,-8.32732 -8.93928,-15.22798 0.68145,-4.05069 18.69356,-57.36116 20.55741,-60.843799 C 550.89169,73.333861 552.38313,73 558.06657,73 c 4.84887,0 7.15064,0.402472 7.49939,1.311288 0.27675,0.721209 -4.02915,14.55703 -9.56867,30.746272 -5.53951,16.18924 -9.94257,30.33666 -9.78457,31.43871 0.41505,2.89492 5.17679,3.23781 7.49379,0.53962 C 554.69293,135.88718 560.225,121.12168 566,104.22366 L 576.5,73.5 l 7.75,-0.292064 c 6.99167,-0.263486 7.75,-0.110194 7.75,1.566611 0,2.60348 -18.34154,56.998263 -21.02066,62.340123 -4.84564,9.66169 -11.59376,14.02196 -22.47934,14.52495 -3.85,0.1779 -8.35,-0.17696 -10,-0.78857 z m 17.15499,-1.34123 c 6.03084,-1.79097 11.82106,-7.07111 14.5707,-13.28712 C 572.3854,131.34031 591,76.424014 591,74.934875 591,73.628466 578.26732,73.758452 577.45479,75.073156 577.09,75.663392 572.32514,89.275892 566.8662,105.32316 561.40726,121.37042 556.1181,135.625 555.11251,137 c -1.40803,1.92527 -2.72311,2.5 -5.72043,2.5 -3.50929,0 -3.92339,-0.27239 -4.21039,-2.7696 -0.18492,-1.60889 3.87544,-15.08033 9.68858,-32.14475 5.5038,-16.156329 9.73454,-29.64751 9.40165,-29.980398 -1.16149,-1.161492 -12.01302,-0.623266 -12.99919,0.644748 -1.43166,1.840822 -20.1855,57.82032 -20.35202,60.75 -0.46958,8.26172 1.19804,11.23066 7.57929,13.49367 5.22745,1.85384 10.94866,1.85923 17.15499,0.0161 z m -232.64386,-0.21776 c 0.006,-0.98563 5.52517,-18.44206 12.26455,-38.79206 l 12.25342,-37 6.88632,-0.299129 c 3.78748,-0.164521 7.30043,0.114983 7.80657,0.62112 0.56033,0.560332 -0.672,5.970624 -3.15087,13.833232 -5.21062,16.527317 -5.21046,16.542207 0.17888,16.152277 l 4.25,-0.3075 5,-15 5,-15 7.75,-0.292064 c 7.51935,-0.283372 7.74734,-0.22385 7.66051,2 C 388.86129,76.468571 383.34879,93.925 376.66051,114 L 364.5,150.5 l -6.90087,0.29913 c -3.79548,0.16452 -7.32262,-0.12262 -7.8381,-0.6381 -0.58296,-0.58296 0.82271,-6.49876 3.71885,-15.65079 2.56084,-8.09246 4.4041,-15.3702 4.09613,-16.17275 -0.38592,-1.00569 -1.72786,-1.36257 -4.31797,-1.14833 L 349.5,117.5 344,134 l -5.5,16.5 -7.75,0.29206 c -6.89557,0.25987 -7.74877,0.0945 -7.73887,-1.5 z M 343,133 l 5.5,-16.5 h 5 c 4.59908,0 5.02032,0.20046 5.25343,2.5 0.13939,1.375 -1.73248,8.575 -4.15971,16 -2.42723,7.425 -4.06936,13.86191 -3.64918,14.30425 0.42018,0.44234 3.41705,0.66734 6.65971,0.5 L 363.5,149.5 375.76062,112.56062 c 6.89674,-20.7788 11.88225,-37.317745 11.39575,-37.804248 -0.47568,-0.475682 -3.51796,-0.727964 -6.76062,-0.560625 L 374.5,74.5 369.42771,89.412187 c -4.04097,11.880203 -5.51764,15.076933 -7.26267,15.722463 -2.64556,0.97866 -8.17098,0.0134 -8.7636,-1.53089 -0.23466,-0.61152 1.60307,-7.16348 4.08385,-14.559908 2.4853,-7.409894 4.1279,-13.830667 3.65836,-14.300204 -0.46869,-0.468684 -3.50524,-0.71524 -6.7479,-0.547901 L 348.5,74.5 336.30068,111.4275 c -6.70962,20.31013 -11.95792,37.31808 -11.66289,37.79546 0.29504,0.47737 3.30973,0.735 6.69932,0.5725 L 337.5,149.5 Z m 78.98881,16.79569 c -0.0166,-1.91904 24.127,-74.085184 25.27421,-75.54569 1.17338,-1.493804 18.29938,-1.767076 19.20212,-0.306401 0.32075,0.51898 -0.32663,10.30648 -1.43862,21.75 -1.11199,11.443521 -2.00855,22.156401 -1.99235,23.806401 0.0561,5.71562 2.34617,0.30016 9.36358,-22.142537 C 476.15669,85.335858 479.68504,74.9375 480.23853,74.25 480.83757,73.505929 483.62379,73 487.12244,73 492.05321,73 493,73.281869 493,74.749816 c 0,2.798941 -24.18509,74.673584 -25.3999,75.484874 -0.60505,0.40408 -4.82672,0.74158 -9.38148,0.75 -6.64013,0.0123 -8.40174,-0.29831 -8.88864,-1.56716 -0.33399,-0.87035 0.35669,-11.10785 1.53483,-22.75 2.49041,-24.60965 2.60547,-27.537809 1.01973,-25.95207 -0.6135,0.6135 -4.56968,12.066 -8.7915,25.45 l -7.67605,24.33454 -6.70849,0.29569 c -4.9742,0.21925 -6.71139,-0.0393 -6.71969,-1 z M 434.34476,149.25 c 0.25454,-0.4125 4.14219,-12.45 8.63922,-26.75 4.49703,-14.3 8.59033,-26.4275 9.09622,-26.95 2.75377,-2.844185 2.82807,2.02586 0.41103,26.94123 -1.39029,14.33133 -2.12978,26.27022 -1.65648,26.74352 0.47023,0.47023 4.3635,0.72228 8.6517,0.56011 L 467.28319,149.5 479.60186,113 c 6.77528,-20.075 12.33656,-37.0625 12.35841,-37.75 0.0265,-0.834579 -1.58126,-1.25 -4.83783,-1.25 -2.68742,0 -5.33888,0.561278 -5.90496,1.25 -0.56508,0.6875 -4.26383,11.562135 -8.21945,24.165855 C 465.31168,123.9067 464.16898,127 462.8081,127 c -1.81795,0 -1.74302,-3.17339 0.6359,-26.9342 1.34549,-13.438812 2.21946,-24.801312 1.94216,-25.250001 -0.84141,-1.361429 -16.01892,-0.975958 -17.09621,0.434201 -1.59565,2.088683 -25.29604,72.93113 -24.71415,73.87265 0.65984,1.06765 10.11971,1.17952 10.76896,0.12735 z m 43.70798,-0.5 c 0.029,-1.2375 5.54151,-18.675 12.25,-38.75 L 502.5,73.5 514,73.200513 c 13.97873,-0.36404 17.06298,0.14016 20.97056,3.428171 2.5791,2.170169 3.02783,3.241995 3.01862,7.21021 -0.0218,9.374722 -4.96389,20.746296 -10.50465,24.170666 -1.9677,1.21611 -3.42046,2.49896 -3.22835,2.85077 3.364,6.16066 3.67662,7.97746 2.28925,13.30396 C 520.63388,146.86023 515.12252,151 490.8185,151 c -12.64222,0 -12.81777,-0.0309 -12.76576,-2.25 z m 33.63933,-1.56538 c 5.59588,-2.89155 8.52747,-7.07973 11.68108,-16.68803 2.95918,-9.01595 3.34446,-14.65614 1.12685,-16.49659 -2.27429,-1.88749 -1.80053,-4.5012 1.09695,-6.05189 4.28231,-2.29182 7.2274,-6.64268 9.37287,-13.846787 C 540.0748,76.959787 536.33356,73.490574 513.5,74.192563 l -10,0.307437 -12.17498,36 c -6.69624,19.8 -12.20874,36.84418 -12.25,37.87595 -0.0708,1.7705 0.72598,1.85063 14.17498,1.42539 12.09641,-0.38248 14.88354,-0.77794 18.44207,-2.61672 z M 498.25,138.33772 c -1.78757,-0.7213 -1.55496,-2.80275 1.31906,-11.80309 C 502.65122,116.88247 503.3229,116 507.58726,116 c 4.52992,0 5.8802,2.55028 4.35305,8.22166 -3.08159,11.44416 -7.92794,16.44123 -13.69031,14.11606 z m 7.65336,-2.88411 c 0.77184,-0.73247 2.42714,-4.37393 3.67843,-8.09214 2.73984,-8.14142 2.03898,-10.65133 -2.8398,-10.16987 -2.99886,0.29594 -3.2478,0.68422 -6.1607,9.609 -2.60637,7.98562 -2.82671,9.43161 -1.55843,10.22718 1.70611,1.07019 4.85251,0.35033 6.8805,-1.57417 z m 3.19956,-30.34358 c -2.71798,-1.77012 2.34891,-18.483885 5.95,-19.626826 2.69718,-0.856052 5.75021,0.280424 6.99334,2.603237 1.35012,2.522717 -1.5386,12.093719 -4.47765,14.835519 -2.53479,2.36468 -6.58654,3.4119 -8.46569,2.18807 z m 6.87576,-2.09862 c 2.36329,-1.26479 5.2813,-8.852649 4.85175,-12.616269 C 520.53797,87.832722 520.10841,87.5 517.09266,87.5 c -3.32448,0 -3.46431,0.168883 -5.75,6.944787 C 510.0542,98.26442 509,101.97692 509,102.69479 c 0,1.54181 4.32291,1.73795 6.97868,0.31662 z M 632,149.13636 c 0,-2.45968 22.90658,-73.271508 24.22463,-74.88636 0.63659,-0.779936 3.60657,-1.25 7.89781,-1.25 5.8879,0 6.87586,0.25182 6.86573,1.75 -0.0173,2.55562 -22.80233,73.32115 -24.11855,74.9071 C 646.13459,150.54276 643.4134,151 638.87756,151 632.83441,151 632,150.7739 632,149.13636 Z m 26.18428,-36.56828 c 6.7449,-21.017935 11.47599,-37.307807 10.97955,-37.804252 -0.47979,-0.479783 -3.46521,-0.73542 -6.63429,-0.568081 L 656.76759,74.5 644.88363,111.34522 c -6.53618,20.26487 -11.61969,37.27283 -11.29669,37.79546 0.32301,0.52263 3.32287,0.81728 6.66637,0.65478 L 646.3324,149.5 Z M 580,148.94369 c 0,-1.89467 23.18781,-72.347418 24.25449,-73.69369 1.47885,-1.866485 23.73695,-1.698245 28.31362,0.214011 5.07549,2.120675 7.0238,7.18015 5.64195,14.651313 -1.67983,9.082303 -4.93997,15.563406 -9.08001,18.050906 -1.99653,1.1996 -3.78218,2.29256 -3.96811,2.42882 -0.18593,0.13625 0.6773,1.62107 1.9183,3.2996 l 2.25634,3.05188 -2.16488,7.77673 c -3.58008,12.86047 -6.64933,22.70158 -7.49347,24.02674 -0.51181,0.80346 -3.2758,1.25 -7.73725,1.25 -8.46497,0 -8.41394,0.22972 -3.42258,-15.40707 1.91488,-5.99889 3.4816,-11.93107 3.4816,-13.18262 0,-2.82235 -3.59415,-4.24473 -5.61626,-2.22262 -0.76629,0.76629 -3.56669,7.90004 -6.22313,15.85278 l -4.82988,14.45953 -7.66536,0.29206 C 582.42176,149.99186 580,149.72382 580,148.94369 Z m 19.23305,-14.8208 c 2.60317,-7.90741 5.24577,-14.99491 5.87244,-15.75 1.40488,-1.69277 5.07972,-1.78768 6.69451,-0.17289 1.89932,1.89932 1.41097,5.52381 -2.3184,17.20707 -1.91488,5.99889 -3.4816,11.51139 -3.4816,12.25 0,0.98535 1.7205,1.34293 6.46146,1.34293 h 6.46145 l 1.13359,-4.25 c 0.62347,-2.3375 2.47178,-8.44323 4.10736,-13.56828 3.63096,-11.37752 3.80825,-14.51806 0.98897,-17.51904 C 623.96877,112.40231 623,111.07175 623,110.70587 c 0,-0.36587 1.73126,-1.54845 3.84725,-2.62794 2.11598,-1.0795 4.5219,-3.00114 5.34649,-4.27032 2.48411,-3.823456 5.03613,-12.726183 5.11324,-17.837476 C 637.43934,77.196304 633.28633,75 616.56347,75 h -11.50076 l -11.88457,36.25 c -6.53651,19.9375 -11.68642,36.60796 -11.44424,37.04546 0.24218,0.4375 3.21362,0.6625 6.60321,0.5 L 594.5,148.5 Z M 606.25,106.32772 c -1.84017,-0.7278 -1.53526,-4.09249 1.07101,-11.818735 2.56324,-7.598694 4.07234,-9.129044 8.02421,-8.137187 2.20268,0.552837 2.65478,1.228759 2.65478,3.969115 0,4.323637 -2.67038,12.063287 -4.80956,13.939717 -2.03338,1.78362 -5.22581,2.72523 -6.94044,2.04709 z m 6.05687,-3.11432 C 614.63863,100.63685 617,94.541667 617,91.099506 617,87.662639 613.64959,85.859468 611.51445,88.147221 610.20369,89.55168 606,101.40318 606,103.69417 c 0,1.92545 4.43525,1.58736 6.30687,-0.48077 z"
         id="path11" />
      <path
         style="fill:#e7262a"
         d="m 283.31291,149.89752 c -6.60368,-1.9106 -8.62529,-7.73429 -6.14594,-17.7047 1.80597,-7.2625 13.37588,-39.357171 16.18984,-44.910255 C 297.88402,78.348551 306.85609,73 317.31548,73 c 13.47155,0 18.31433,6.749527 14.0428,19.571861 C 328.98318,99.70145 328.57735,100 321.26092,100 c -5.71086,0 -6.4332,-0.211084 -5.98863,-1.75 3.64521,-12.61821 3.44909,-14.460172 -1.60403,-15.064577 -5.39506,-0.645305 -6.83684,2.286434 -20.73966,42.172127 -4.51237,12.94548 -4.26776,15.14245 1.68595,15.14245 3.60785,0 4.04481,-0.3215 6.11603,-4.5 1.22683,-2.475 3.11402,-6.6375 4.19377,-9.25 l 1.96319,-4.75 h 6.68123 6.68123 l -0.55517,2.77585 c -2.44544,12.22722 -9.73933,22.26898 -17.94523,24.70587 -5.62091,1.66923 -13.49094,1.84673 -18.43669,0.4158 z m 102,0.0643 C 381.065,148.64709 378,144.57405 378,140.24378 c 0,-4.85979 15.44289,-50.717636 19.00283,-56.429115 4.04408,-6.488221 9.9239,-9.757214 18.90411,-10.510082 C 428.10174,72.282214 434,75.924857 434,84.478483 c 0,6.386539 -14.90898,49.689897 -19.52692,56.716237 -3.78348,5.75668 -10.02023,8.87835 -18.688,9.35386 -4.00679,0.21981 -8.71927,-0.0442 -10.47217,-0.58675 z m 17.79846,-13.35509 c 1.04926,-1.70871 5.36931,-13.57837 9.60012,-26.37703 l 7.69237,-23.270295 -2.03952,-2.039522 c -2.73576,-2.735757 -6.94086,-1.664596 -9.41102,2.39726 -2.74443,4.512853 -15.95706,44.647547 -15.95505,48.465067 0.003,5.87987 6.67478,6.42381 10.1131,0.82452 z M 538.5,149.49367 c -6.38125,-2.26301 -8.04887,-5.23195 -7.57929,-13.49367 0.16652,-2.92968 18.92036,-58.909178 20.35202,-60.75 0.98617,-1.268014 11.8377,-1.80624 12.99919,-0.644748 0.33289,0.332888 -3.89785,13.824069 -9.40165,29.980398 -5.81314,17.06442 -9.8735,30.53586 -9.68858,32.14475 0.287,2.49721 0.7011,2.7696 4.21039,2.7696 2.99732,0 4.3124,-0.57473 5.72043,-2.5 1.00559,-1.375 6.29475,-15.62958 11.75369,-31.67684 C 572.32514,89.275892 577.09,75.663392 577.45479,75.073156 578.26732,73.758452 591,73.628466 591,74.934875 591,76.424014 572.3854,131.34031 570.22569,136.2227 565.0097,148.0143 550.93271,153.90275 538.5,149.49367 Z m -213.86221,-0.27071 c -0.29503,-0.47738 4.95327,-17.48533 11.66289,-37.79546 L 348.5,74.5 l 5.89575,-0.304253 c 3.24266,-0.167339 6.27921,0.07922 6.7479,0.547901 0.46954,0.469537 -1.17306,6.89031 -3.65836,14.300204 -2.48078,7.396428 -4.31851,13.948388 -4.08385,14.559908 0.59262,1.54433 6.11804,2.50955 8.7636,1.53089 1.74503,-0.64553 3.2217,-3.84226 7.26267,-15.722463 L 374.5,74.5 l 5.89575,-0.304253 c 3.24266,-0.167339 6.28494,0.08494 6.76062,0.560625 0.4865,0.486503 -4.49901,17.025448 -11.39575,37.804248 L 363.5,149.5 l -5.89575,0.30425 c -3.24266,0.16734 -6.23953,-0.0577 -6.65971,-0.5 -0.42018,-0.44234 1.22195,-6.87925 3.64918,-14.30425 2.42723,-7.425 4.2991,-14.625 4.15971,-16 -0.23311,-2.29954 -0.65435,-2.5 -5.25343,-2.5 h -5 l -5.5,16.5 -5.5,16.5 -6.16289,0.29546 c -3.38959,0.1625 -6.40428,-0.0951 -6.69932,-0.5725 z m 98.93801,-0.10031 c -0.58189,-0.94152 23.1185,-71.783967 24.71415,-73.87265 1.07729,-1.410159 16.2548,-1.79563 17.09621,-0.434201 0.2773,0.448689 -0.59667,11.811189 -1.94216,25.250001 -2.37892,23.76081 -2.45385,26.9342 -0.6359,26.9342 1.36088,0 2.50358,-3.0933 10.18993,-27.584145 3.95562,-12.60372 7.65437,-23.478355 8.21945,-24.165855 0.56608,-0.688722 3.21754,-1.25 5.90496,-1.25 3.25657,0 4.86436,0.415421 4.83783,1.25 -0.0218,0.6875 -5.58313,17.675 -12.35841,37.75 l -12.31867,36.5 -7.79674,0.29486 c -4.2882,0.16217 -8.18147,-0.0899 -8.6517,-0.56011 -0.4733,-0.4733 0.26619,-12.41219 1.65648,-26.74352 2.41704,-24.91537 2.34274,-29.785415 -0.41103,-26.94123 -0.50589,0.5225 -4.59919,12.65 -9.09622,26.95 -4.49703,14.3 -8.38468,26.3375 -8.63922,26.75 -0.64925,1.05217 -10.10912,0.9403 -10.76896,-0.12735 z m 55.49922,-0.7467 c 0.0413,-1.03177 5.55376,-18.07595 12.25,-37.87595 l 12.17498,-36 10,-0.307437 c 22.83356,-0.701989 26.5748,2.767224 21.46982,19.90876 -2.14547,7.204107 -5.09056,11.554967 -9.37287,13.846787 -2.89748,1.55069 -3.37124,4.1644 -1.09695,6.05189 2.21761,1.84045 1.83233,7.48064 -1.12685,16.49659 -3.15361,9.6083 -6.0852,13.79648 -11.68108,16.68803 -3.55853,1.83878 -6.34566,2.23424 -18.44207,2.61672 -13.449,0.42524 -14.24578,0.34511 -14.17498,-1.42539 z m 25.3338,-10.51636 c 4.29538,-1.95711 9.66209,-15.99007 7.59342,-19.85541 -1.24459,-2.32553 -7.09472,-2.8026 -8.8235,-0.71955 -1.26273,1.5215 -6.14758,16.48034 -6.16597,18.88204 -0.021,2.7437 3.38084,3.52237 7.39605,1.69292 z m 13.15979,-34.93763 c 2.93905,-2.7418 5.82777,-12.312802 4.47765,-14.835519 -1.24313,-2.322813 -4.29616,-3.459289 -6.99334,-2.603237 -3.60109,1.142941 -8.66798,17.856706 -5.95,19.626826 1.87915,1.22383 5.9309,0.17661 8.46569,-2.18807 z m 116.01833,46.21872 c -0.323,-0.52263 4.76051,-17.53059 11.29669,-37.79546 L 656.76759,74.5 l 5.76195,-0.304253 c 3.16908,-0.167339 6.1545,0.0883 6.63429,0.568081 0.49644,0.496445 -4.23465,16.786317 -10.97955,37.804252 L 646.3324,149.5 l -6.07909,0.29546 c -3.3435,0.1625 -6.34336,-0.13215 -6.66637,-0.65478 z m -51.85304,-0.84522 c -0.24218,-0.4375 4.90773,-17.10796 11.44424,-37.04546 L 605.06271,75 h 11.50076 c 16.72286,0 20.87587,2.196304 20.74351,10.970134 -0.0771,5.111293 -2.62913,14.01402 -5.11324,17.837476 -0.82459,1.26918 -3.23051,3.19082 -5.34649,4.27032 C 624.73126,109.15742 623,110.34 623,110.70587 c 0,0.36588 0.96877,1.69644 2.15283,2.95681 2.81928,3.00098 2.64199,6.14152 -0.98897,17.51904 -1.63558,5.12505 -3.48389,11.23078 -4.10736,13.56828 l -1.13359,4.25 h -6.46145 C 607.7205,149 606,148.64242 606,147.65707 c 0,-0.73861 1.56672,-6.25111 3.4816,-12.25 3.72937,-11.68326 4.21772,-15.30775 2.3184,-17.20707 -1.61479,-1.61479 -5.28963,-1.51988 -6.69451,0.17289 -0.62667,0.75509 -3.26927,7.84259 -5.87244,15.75 L 594.5,148.5 l -6.16289,0.29546 c -3.38959,0.1625 -6.36103,-0.0625 -6.60321,-0.5 z m 31.45654,-44.01483 C 615.32962,102.4042 618,94.66455 618,90.340913 c 0,-2.740356 -0.4521,-3.416278 -2.65478,-3.969115 -1.46012,-0.366469 -3.34067,-0.233654 -4.17899,0.295145 C 609.49297,87.72241 605,100.06887 605,103.61145 c 0,3.62548 4.40947,3.98574 8.19044,0.66918 z"
         id="path10" />
      <path
         style="fill:#5f5f5e"
         d="m 184.11233,305.48344 c -13.82537,-3.88231 -24.58629,-12.95673 -30.74602,-25.92737 -10.73709,-22.60927 -1.03588,-49.72579 21.81867,-60.98686 17.48228,-8.61402 38.47532,-5.56978 52.39877,7.59844 3.08469,2.91738 6.73303,7.22313 8.10741,9.56833 1.37439,2.34521 2.90938,4.26402 3.4111,4.26402 0.54294,0 0.80809,-26.41455 0.65498,-65.25 L 239.5,109.5 l -5,-0.5 -5,-0.5 -0.25984,-46.668735 c -0.23073,-41.441211 -0.0827,-46.845859 1.32143,-48.25 2.13528,-2.135275 25.56704,-2.336126 27.31156,-0.234107 0.80573,0.970844 1.18911,32.184186 1.37245,111.740212 l 0.2544,110.39305 3,0.51851 3,0.51851 0.5,25.49128 c 0.275,14.0202 0.86406,26.05378 1.30902,26.74128 0.63176,0.97613 13.4085,1.25 58.31574,1.25 36.12888,0 58.196,0.36889 59.3609,0.99232 4.66779,2.49813 4.52357,11.90829 -0.21558,14.06565 -1.54698,0.70421 -24.886,0.77993 -73.27008,0.23771 L 240.5,304.5 240.21826,292.75 C 240.06331,286.2875 239.5894,281 239.16512,281 c -0.42427,0 -2.6936,2.72567 -5.04295,6.05705 -4.99195,7.07858 -13.80909,13.92058 -21.8974,16.99212 -7.49265,2.84533 -20.68975,3.51864 -28.11244,1.43427 z m 22.42757,-1.0263 c 3.27806,-0.84857 7.88888,-2.47159 10.24628,-3.60672 6.09536,-2.93501 14.90035,-11.32528 18.40858,-17.54152 4.83506,-8.56725 5.80524,-7.36022 5.80524,7.22248 0,9.1526 0.33703,12.63545 1.25,12.91734 0.6875,0.21228 32.85021,0.6283 71.4727,0.9245 78.03489,0.59844 73.2773,0.99552 73.2773,-6.11591 0,-1.9799 -0.74474,-4.42276 -1.65499,-5.42857 -1.56652,-1.73098 -4.73382,-1.82956 -59.25,-1.84405 -34.49102,-0.009 -58.19673,-0.39515 -59.09501,-0.96219 -1.24792,-0.78775 -1.58403,-5.27919 -2,-26.72597 l -0.5,-25.77909 -3,-0.51848 -3,-0.51849 L 258,124.99024 257.5,13.5 244.89633,13.221216 c -9.8169,-0.217143 -12.85938,0.02933 -13.76018,1.114727 -0.84683,1.020368 -1.08684,13.680325 -0.89633,47.278785 L 230.5,107.5 l 5,0.5 5,0.5 0.2572,66.4428 c 0.15328,39.59614 -0.11538,66.81538 -0.66491,67.36491 -0.56282,0.56282 -1.9805,-0.77864 -3.6384,-3.4428 C 226.46368,222.81124 213.26218,215 196.12064,215 c -41.16616,0 -61.44771,48.50312 -32.45124,77.6068 11.11989,11.16102 27.76226,15.76133 42.8705,11.85034 z M 188.5,276.3348 c -4.63257,-2.44773 -6.62333,-4.48827 -8.61927,-8.8348 -2.42326,-5.27711 -2.3504,-9.89834 0.24042,-15.25026 6.36229,-13.14275 25.39541,-13.14275 31.7577,0 1.16663,2.40994 2.12115,5.82909 2.12115,7.5981 0,3.71645 -2.30877,9.73024 -4.78814,12.47197 -4.75823,5.26174 -14.70353,7.18964 -20.71186,4.01499 z m 13.79774,-0.68584 c 4.41513,-1.84476 9.46039,-7.84277 10.28232,-12.22404 1.51766,-8.08982 -4.30692,-17.19719 -12.39046,-19.37387 -11.42072,-3.07528 -22.96157,7.68999 -20.76966,19.37387 0.80098,4.2696 5.8035,10.3262 10.06147,12.18151 3.93051,1.71263 8.78069,1.72873 12.81633,0.0425 z m 111.72197,-12.93341 c -3.43652,-1.73879 -5.11871,-5.48932 -4.35763,-9.71555 1.17343,-6.51604 11.42588,-35.47572 13.88561,-39.22211 3.08956,-4.7057 7.27217,-6.87497 14.36446,-7.45001 6.90593,-0.55992 12.12452,1.77975 13.19936,5.91772 0.93346,3.59367 -0.92703,11.29527 -6.5839,27.2544 -5.53399,15.61248 -8.23218,20.0088 -13.84375,22.55654 -4.79542,2.17719 -13.02076,2.50248 -16.66415,0.65901 z m 13.89702,-0.69167 c 7.23765,-2.07573 9.77192,-6.17251 17.07852,-27.6083 5.371,-15.75718 6.19891,-22.03402 3.25475,-24.67598 -4.53388,-4.0685 -16.88148,-2.82124 -21.68277,2.19023 -3.04899,3.18245 -6.82333,11.98561 -11.98654,27.95703 -3.45495,10.68721 -4.3851,17.2995 -2.78715,19.81333 1.89074,2.97441 9.85304,4.12195 16.12319,2.32369 z m -6.61931,-8.6912 c -0.67198,-1.75116 8.89197,-32.19874 11.334,-36.08268 1.68294,-2.67664 6.1271,-3.04285 7.07116,-0.58268 0.67198,1.75116 -8.89197,32.19874 -11.334,36.08268 -1.68294,2.67664 -6.1271,3.04285 -7.07116,0.58268 z m 6.12901,-1.53111 c 2.27244,-3.24436 11.85544,-32.62464 11.1991,-34.33503 -0.83435,-2.1743 -3.37846,-1.7781 -5.03076,0.78346 -2.30738,3.57713 -11.8281,32.69956 -11.21364,34.30082 0.81778,2.1311 3.2844,1.7648 5.0453,-0.74925 z m 248.99469,10.83447 c -5.49408,-2.49035 -6.96487,-11.10484 -2.94377,-17.24181 1.26302,-1.92762 2.42976,-2.39423 5.98669,-2.39423 5.23947,0 5.95309,0.82975 4.67976,5.44137 -0.73907,2.67669 -0.63225,3.73829 0.46804,4.65145 1.12185,0.93105 1.8479,0.8011 3.40692,-0.6098 3.16772,-2.86674 2.61793,-8.35828 -1.36049,-13.58922 C 581.77847,232.47771 581,230.63855 581,225.5259 c 0,-11.40227 10.86372,-20.94564 21.81965,-19.16774 7.60074,1.23343 10.65325,5.52943 9.06445,12.75703 -1.11747,5.08346 -3.04484,6.89092 -7.32523,6.8695 -4.74631,-0.0238 -5.80597,-1.15061 -5.02029,-5.33865 0.60953,-3.24909 0.45665,-3.64604 -1.40424,-3.64604 -2.80055,0 -5.50416,4.2311 -4.60135,7.20104 0.38437,1.26443 2.46431,4.61336 4.62208,7.44208 4.98574,6.53599 6.08851,10.29807 4.76387,16.2518 -2.12248,9.53975 -8.58104,15.28979 -17.76241,15.81385 -3.38075,0.19296 -6.89525,-0.23863 -8.73541,-1.07273 z m 14.3244,-1.17418 c 4.95886,-2.07194 7.18895,-4.20404 9.37375,-8.96186 3.0091,-6.55291 2.48877,-12.43401 -1.60503,-18.14081 -5.67763,-7.91467 -6.70356,-10.22075 -5.99077,-13.46606 0.86835,-3.95356 4.85024,-6.65779 7.07934,-4.80781 1.11202,0.9229 1.43133,2.31688 1.05786,4.61829 L 600.12574,224 h 4.46188 c 3.8694,0 4.59138,-0.34061 5.43713,-2.5651 1.26355,-3.32339 1.24464,-8.06302 -0.0418,-10.46668 -2.47558,-4.62568 -14.52108,-4.5695 -21.07639,0.0983 -3.75966,2.67711 -6.9066,9.5904 -6.9066,15.17262 0,3.75513 0.66993,5.48533 3.62072,9.35108 1.9914,2.60888 4.26192,6.27799 5.04559,8.15358 1.27635,3.05473 1.23771,3.79299 -0.37073,7.08319 -3.15633,6.45655 -9.73846,4.75082 -7.41266,-1.92096 C 584.31739,244.7911 583.67776,244 578.91623,244 c -4.28499,0 -5.42295,1.49813 -6.6317,8.73063 -1.37351,8.21835 8.50574,12.8908 18.46099,8.73123 z m -313.15613,0.68278 c -0.59149,-0.95705 16.12052,-51.93331 17.66877,-53.89464 1.23716,-1.56724 23.30092,-1.77244 24.25692,-0.2256 0.91636,1.48271 -0.4285,6.74616 -2.16822,8.48589 C 316.37013,217.48701 313.8624,218 310.06443,218 h -5.79271 l -1.63586,4.28343 c -2.46536,6.45544 -2.3139,6.71657 3.89552,6.71657 6.45773,0 7.30452,1.06365 5.08184,6.38327 -1.49541,3.57901 -1.573,3.61673 -7.43975,3.61673 -6.79206,0 -7.21844,0.35248 -9.67701,8 -0.97249,3.025 -2.63937,7.8625 -3.70416,10.75 l -1.936,5.25 h -5.36913 c -2.95303,0 -5.60702,-0.38491 -5.89778,-0.85536 z m 14.33179,-11.16726 c 1.96835,-5.78745 3.94288,-11.07495 4.38784,-11.75 0.49971,-0.75812 3.26062,-1.22738 7.22141,-1.22738 6.38694,0 6.41589,-0.0129 7.29417,-3.25 0.48498,-1.7875 0.69629,-3.5875 0.46958,-4 -0.22672,-0.4125 -2.86066,-0.75 -5.8532,-0.75 -6.06258,0 -6.44642,-0.6297 -4.32839,-7.10078 1.69697,-5.18461 4.28169,-6.89922 10.40037,-6.89922 5.02362,0 5.34634,-0.15763 6.37724,-3.11487 0.59722,-1.71318 0.83968,-3.51318 0.53881,-4 -0.89618,-1.45005 -22.12931,-1.10868 -22.69434,0.36487 C 293.67279,214.62722 279,259.87584 279,260.85713 c 0,0.86802 1.43378,1.1589 4.67118,0.94766 L 288.34235,261.5 Z M 343,261.78564 c 0,-0.72279 3.97848,-13.23275 8.84106,-27.7999 L 360.68212,207.5 h 10.08118 c 9.2938,0 10.28251,0.18935 12.65894,2.42431 1.89005,1.77755 2.57776,3.43495 2.57776,6.21249 0,5.27333 -3.62534,14.4225 -6.56603,16.57049 -2.19001,1.59968 -2.33722,2.11574 -1.36716,4.79271 0.91599,2.52775 0.5517,4.7316 -2.31414,14 l -3.40127,11 -5.6757,0.2999 c -6.80591,0.35963 -6.8826,0.0988 -3.1757,-10.7999 2.74962,-8.08421 3.05016,-10.54195 1.41287,-11.55385 -1.85703,-1.14771 -3.27083,1.27805 -6.90308,11.84406 L 354.5,262.5 l -5.75,0.2999 c -4.23521,0.2209 -5.75,-0.0463 -5.75,-1.01426 z M 356.58927,253.25 c 3.61767,-11.92916 5.00065,-14.44876 7.71846,-14.06199 3.14406,0.44744 3.20004,3.35805 0.25058,13.02781 -1.40707,4.61306 -2.55831,8.72632 -2.55831,9.14057 0,0.41426 2.12241,0.61604 4.71647,0.4484 l 4.71647,-0.30479 3.39491,-10.94816 c 3.15829,-10.18508 3.28803,-11.12432 1.86141,-13.47551 -1.47812,-2.43606 -1.39618,-2.65464 2.26853,-6.05184 2.95232,-2.73681 4.08258,-4.78567 5.05734,-9.16766 2.45088,-11.01778 -0.97693,-14.17214 -14.83085,-13.64771 L 361.5,208.5 l -8.6761,26 c -4.77185,14.3 -8.70935,26.3375 -8.75,26.75 -0.0406,0.4125 2.16163,0.75 4.89396,0.75 h 4.96785 z m 8.81354,-23.64268 c -0.73578,-1.91741 2.22978,-11.05751 4.08807,-12.59975 1.03466,-0.85869 1.9153,-0.86055 3.50938,-0.007 1.74676,0.93484 2.00925,1.70885 1.46484,4.31939 -0.3648,1.74926 -1.42897,4.53047 -2.36482,6.18047 -1.88099,3.31637 -5.7646,4.53833 -6.69747,2.10732 z m 4.8006,-1.35732 c 2.62166,-3.03156 4.02351,-8.45172 2.56341,-9.9113 -1.84532,-1.84466 -3.23581,-0.46866 -5.08921,5.03616 -2.12992,6.32613 -0.85577,8.78541 2.5258,4.87514 z m 8.41637,33.9438 c -0.61209,-0.99038 16.04066,-51.9198 17.63838,-53.9438 0.54805,-0.69428 3.15516,-1.25 5.86428,-1.25 5.76448,0 5.94141,0.59477 2.84988,9.58046 -3.20722,9.32194 -1.88898,9.63016 3.93281,0.91954 2.94077,-4.4 6.05116,-8.5625 6.91199,-9.25 1.77936,-1.42109 10.7822,-1.70733 11.60926,-0.36911 0.29943,0.48448 -3.26165,6.27626 -7.91351,12.87061 l -8.45792,11.98974 -0.27748,14.87938 L 410.5,262.5 h -6 -6 l -0.073,-9.5 c -0.11905,-15.4793 -0.32109,-15.50422 -5.427,-0.66915 l -3.5,10.16915 -5.1606,0.29916 c -2.83833,0.16454 -5.41216,-0.10787 -5.71962,-0.60536 z m 13.9314,-11.4438 c 2.0441,-6.1875 4.15729,-11.80755 4.69599,-12.48899 2.2111,-2.79702 2.92054,0.36175 2.60599,11.60324 l -0.32558,11.63575 5.23621,0.30226 5.23621,0.30226 v -14.84879 -14.8488 l 8,-11.34493 c 4.4,-6.23971 8,-11.75592 8,-12.25825 0,-0.50233 -2.1375,-0.77618 -4.75,-0.60854 l -4.75,0.30479 -6.77812,10 c -3.72796,5.5 -7.21546,10.15 -7.75,10.33333 -1.71329,0.58762 -1.04367,-4.51511 1.52812,-11.64472 1.375,-3.81182 2.5,-7.43864 2.5,-8.0596 0,-1.63532 -7.52931,-1.40108 -8.92248,0.27758 -1.58717,1.91242 -18.02547,51.31213 -17.31207,52.02552 0.31233,0.31234 2.48068,0.56789 4.81854,0.56789 h 4.25065 z M 415,261.73574 c 0,-0.69535 3.97394,-13.18285 8.83098,-27.75 l 8.83097,-26.48574 5.18021,-0.30265 c 3.56356,-0.20819 5.33587,0.10389 5.67901,1 0.27434,0.71646 -2.58261,10.52765 -6.34878,21.80265 -3.76617,11.275 -6.65816,21.0625 -6.42665,21.75 0.26242,0.77931 2.32159,1.25 5.46844,1.25 h 5.0475 l -0.58245,3.58923 C 439.6895,262.68824 438.99401,263 426.37756,263 417.87371,263 415,262.68068 415,261.73574 Z m 23.90217,-2.88496 C 440.53956,254.15377 440.41487,254 434.96862,254 c -3.10319,0 -5.21481,-0.47904 -5.50999,-1.25 -0.26323,-0.6875 2.67328,-10.68012 6.52557,-22.20582 3.92444,-11.74157 6.62497,-21.33501 6.14176,-21.81822 -0.47432,-0.47432 -2.6092,-0.7192 -4.74418,-0.54418 L 433.5,208.5 424.8235,234 c -4.77207,14.025 -8.70957,26.0625 -8.75,26.75 -0.0546,0.92806 2.7344,1.25 10.82867,1.25 h 10.90218 z m 4.71217,3.33423 c -0.43721,-0.70743 15.67277,-52.22252 17.00565,-54.37916 0.70936,-1.14777 10.14109,-1.00146 10.86418,0.16854 0.64657,1.04617 -15.13421,51.68992 -16.75668,53.77561 -1.0715,1.37743 -10.30727,1.73895 -11.11315,0.43501 z M 460.99691,239.75 c 3.91012,-12.2375 7.72098,-24.12693 8.46857,-26.42096 0.7476,-2.29403 1.0987,-4.43153 0.78022,-4.75 -1.04945,-1.04946 -8.11303,-0.60273 -8.83069,0.55848 C 460.36454,210.83721 445,259.02905 445,260.62422 445,261.58553 446.33874,262 449.44379,262 h 4.4438 z M 461,261.72794 c 0,-2.17602 16.8429,-51.83372 18.09108,-53.33768 0.97682,-1.177 5.69439,-1.3769 27.29492,-1.1566 L 532.5,207.5 l -0.2818,3.45639 c -0.37037,4.5429 -2.61571,6.86608 -6.99698,7.23957 L 521.6546,218.5 514.24397,240.75 506.83333,263 h -5.35765 c -2.9467,0 -5.59674,-0.38686 -5.88896,-0.85968 -0.29222,-0.47283 2.60622,-10.24828 6.44098,-21.72322 C 505.86247,228.94215 509,219.20401 509,218.77678 509,218.34955 504.25204,218 498.44897,218 h -10.55102 l -1.44898,3.46788 C 483.73292,227.9683 484.27972,229 490.44098,229 c 2.99254,0 5.68698,0.39803 5.98764,0.88451 0.30066,0.48647 -0.0533,2.62397 -0.78666,4.75 l -1.33332,3.86549 -6.57341,0.5 c -3.61537,0.275 -6.77347,0.725 -7.018,1 -0.24453,0.275 -1.91611,5 -3.71463,10.5 -1.79853,5.5 -3.71497,10.5625 -4.25877,11.25 C 471.38942,263.46232 461,263.44281 461,261.72794 Z M 475.03214,252.25 c 4.59981,-14.02793 4.78707,-14.25 12.01566,-14.25 5.5223,0 6.0796,-0.20489 6.97695,-2.5651 1.85237,-4.87209 1.39244,-5.4349 -4.44142,-5.4349 -3.42586,0 -5.56882,-0.45648 -5.83067,-1.24201 -0.2277,-0.68311 0.28664,-3.43296 1.14297,-6.11079 1.89279,-5.91888 3.43634,-6.6472 14.08768,-6.6472 8.97942,0 11.01669,0.53366 11.01669,2.88583 0,0.91951 -2.925,10.42089 -6.5,21.11417 -3.575,10.69328 -6.5,20.04246 -6.5,20.77595 0,0.9646 1.29195,1.24929 4.66897,1.02884 l 4.66897,-0.30479 7.29791,-21.88355 c 4.01385,-12.03595 7.50065,-22.08628 7.74844,-22.33408 0.2478,-0.24779 2.26319,-0.69366 4.47865,-0.99081 3.3844,-0.45394 4.19873,-1.0297 5.09571,-3.6028 0.58718,-1.68438 0.69379,-3.43632 0.23692,-3.89319 -0.45687,-0.45687 -12.25134,-0.71028 -26.20991,-0.56312 l -25.37924,0.26755 -8.30551,25 c -4.56803,13.75 -8.5598,25.7875 -8.8706,26.75 -0.48701,1.5082 0.12369,1.75 4.41984,1.75 h 4.98492 z m 54.00988,9.5 c 0.0231,-0.6875 6.70234,-13.175 14.84273,-27.75 l 14.80071,-26.5 7.17173,-0.2941 c 5.25589,-0.21554 7.3079,0.0607 7.68147,1.03425 0.49362,1.28636 -8.18722,52.38219 -9.16937,53.97135 -0.26803,0.43367 -2.99845,0.7885 -6.0676,0.7885 h -5.58027 l 0.59217,-5 0.59218,-5 h -3.93604 c -3.71875,0 -4.07591,0.27602 -6.46973,5 l -2.53369,5 h -5.98316 c -4.14226,0 -5.97022,-0.3846 -5.94113,-1.25 z m 13.70827,-4.71538 c 2.98789,-5.3955 6.42052,-7.08394 10.24289,-5.03827 1.83876,0.98407 2.02482,1.7008 1.44511,5.56658 L 553.77291,262 h 4.64493 c 2.79636,0 4.83366,-0.49747 5.11915,-1.25 1.11667,-2.94343 9.3546,-51.11639 8.8742,-51.89369 -0.83827,-1.35636 -12.03161,-1.02206 -13.18204,0.39369 C 558.13974,210.59066 530,261.02248 530,261.63426 c 0,0.20116 2.25013,0.36574 5.00029,0.36574 4.95985,0 5.02253,-0.0402 7.75,-4.96538 z m 8.57027,-14.64163 c -0.34895,-0.90935 1.06953,-5.06547 3.26742,-9.57344 3.81054,-7.81559 5.90422,-10.66069 7.02231,-9.54259 0.83964,0.83964 -2.61543,15.87882 -4.24395,18.47304 -1.63788,2.60911 -5.14805,2.98243 -6.04578,0.64299 z m 7.2088,-7.5128 c 0.94011,-3.83619 1.47026,-7.2139 1.17812,-7.50604 -0.54409,-0.5441 -4.561,5.8967 -6.82755,10.94746 -1.03997,2.31745 -1.02456,2.97097 0.0862,3.65748 2.53334,1.56569 3.85227,-0.11732 5.56319,-7.0989 z m 47.09716,27.32452 c -0.62514,-1.01149 15.81908,-53.05031 17.20031,-54.43154 0.49178,-0.49178 3.09443,-0.75443 5.78366,-0.58366 4.54978,0.28892 4.87113,0.4842 4.62502,2.81049 -0.14547,1.375 -3.97047,13.75 -8.5,27.5 l -8.23551,25 -5.1606,0.29916 c -2.83833,0.16454 -5.40913,-0.10297 -5.71288,-0.59445 z M 621.05784,245.75 c 2.85051,-8.9375 6.66028,-20.89325 8.46615,-26.56834 3.5794,-11.24849 3.49537,-11.59358 -2.67879,-11.00212 L 623.5,208.5 l -8.60388,26 c -4.73213,14.3 -8.41807,26.3375 -8.19098,26.75 0.22709,0.4125 2.38323,0.75 4.79142,0.75 h 4.37853 z M 621,262.04951 c 0,-0.52277 6.69,-13.01027 14.86666,-27.75 L 650.73332,207.5 l 7.1478,-0.2941 c 5.46698,-0.22494 7.27644,0.0411 7.69485,1.13148 0.51907,1.35268 -8.16548,52.18942 -9.2022,53.86686 C 656.10328,262.64191 653.37555,263 650.31215,263 h -5.56981 l 0.66327,-5 0.66328,-5 h -4.0176 c -3.81663,0 -4.14434,0.25012 -6.55129,5 l -2.53369,5 h -5.98316 C 623.69242,263 621,262.57228 621,262.04951 Z m 13.85229,-4.87374 c 2.89103,-5.25393 6.05855,-6.99305 9.70807,-5.33022 2.36585,1.07795 2.50917,1.508 1.88646,5.66051 L 645.77291,262 h 4.55453 c 2.50499,0 4.78087,-0.36623 5.05751,-0.81384 0.99813,-1.61501 9.63183,-51.34999 9.07146,-52.2567 -0.87149,-1.41009 -12.04264,-1.13919 -13.21806,0.32054 C 649.2626,211.70364 623,259.76307 623,260.92496 c 0,0.78899 1.58184,1.08283 4.73641,0.87983 4.43804,-0.28559 4.88631,-0.5772 7.11588,-4.62902 z m 8.46827,-14.78278 c -0.34895,-0.90935 1.06953,-5.06547 3.26742,-9.57344 6.61723,-13.57226 8.88938,-13.31483 5.52848,0.62635 -1.40522,5.82895 -2.83781,9.61693 -3.77275,9.9757 -2.6054,0.99979 -4.38458,0.63546 -5.02315,-1.02861 z m 6.28835,-3.25329 c 0.32541,-1.45184 1.0261,-4.37262 1.5571,-6.49064 0.53099,-2.11802 0.71086,-4.10552 0.39971,-4.41667 -0.77413,-0.77413 -0.8966,-0.59423 -4.53166,6.6564 -2.40029,4.78773 -2.89128,6.58142 -1.9592,7.15748 1.95736,1.20971 3.88899,-0.0286 4.53405,-2.90657 z M 56.666667,211.33333 C 56.3,210.96667 56,208.65043 56,206.18614 v -4.48053 l 53.43763,0.5205 c 38.49233,0.37494 54.05738,0.20635 55.6536,-0.6028 1.21878,-0.61782 3.13031,-2.35491 4.24784,-3.8602 l 2.03186,-2.7369 -4.68546,-6.85742 C 164.10846,184.39721 162,180.54809 162,179.61519 c 0,-0.93289 0.9929,-3.03915 2.20645,-4.68056 l 2.20645,-2.98439 -9.93769,-9.97512 C 151.00948,156.4888 145.90862,152 145.13996,152 c -0.76866,0 -3.1409,1.575 -5.27164,3.5 -4.24203,3.83242 -5.63697,4.26646 -6.49826,2.02197 -0.35699,-0.93029 2.52672,-4.96071 7.78138,-10.87566 9.24459,-10.40624 12.20578,-12.68909 14.05757,-10.8373 0.89147,0.89147 0.30799,2.40339 -2.46043,6.3754 -2.00669,2.8791 -3.32047,5.74889 -2.93881,6.41942 1.03205,1.81318 19.22547,18.39617 20.18268,18.39617 1.12067,0 21.01219,-26.84223 20.98972,-28.32417 C 190.97236,138.02912 183.64909,118.375 174.70823,95 L 158.45213,52.5 108.18913,52 C 65.001863,51.570387 57.785446,51.288839 56.926805,50 c -1.4049,-2.108784 -0.307956,-8.248127 1.741491,-9.74672 2.485132,-1.817172 100.228234,-1.820299 102.539364,-0.0033 1.59052,1.250464 47.81182,121.03173 48.52453,125.75 0.31839,2.10784 -2.96431,5.91728 -20.92728,24.28522 L 167.5,212.07044 112.41667,212.03522 C 82.120833,212.01585 57.033333,211.7 56.666667,211.33333 Z m 110.875153,-1.09864 c 3.12355,-2.20272 41.45397,-42.43181 41.43165,-43.48395 C 208.95888,166.06284 198.26413,137.6 185.20737,103.5 L 161.46779,41.5 109.7339,41.241 58,40.982001 V 45.491 c 0,2.47995 0.1125,4.611077 0.25,4.735838 0.1375,0.124761 22.915412,0.462261 50.61758,0.75 L 159.23516,51.5 165.55724,68 C 187.65418,125.67079 192,137.29123 192,138.7061 c 0,2.73362 -20.30146,29.29938 -22.18659,29.03259 -2.09077,-0.29589 -21.81706,-18.44853 -21.8037,-20.06432 0.005,-0.6459 1.57327,-3.14127 3.4843,-5.54526 3.34317,-4.20557 3.85888,-6.98561 0.99897,-5.38512 -0.75553,0.42282 -5.30325,5.01498 -10.10605,10.20481 -8.93443,9.65441 -9.95777,13.11114 -1.93534,6.53735 l 4.48002,-3.67104 2.7842,1.99758 c 3.65078,2.61933 19.2861,18.6906 19.2776,19.81512 -0.004,0.47971 -0.90066,2.22219 -1.99341,3.87219 -1.09275,1.65 -1.98979,3.59436 -1.99341,4.32081 -0.004,0.72644 2.01841,4.15858 4.49341,7.62699 2.475,3.4684 4.5,6.98417 4.5,7.81283 0,0.82865 -1.75083,3.08841 -3.89073,5.02168 l -3.89072,3.51504 -53.60928,-0.55111 L 57,202.69512 v 3.48578 c 0,1.91717 0.3,3.78577 0.666667,4.15243 0.91474,0.91474 108.575193,0.81809 109.875153,-0.0986 z"
         id="path9" />
      <path
         style="fill:#090807"
         d="m 186,304.90205 c -7.14924,-1.3962 -16.72436,-6.66827 -22.3306,-12.29525 C 134.67293,263.50312 154.95448,215 196.12064,215 c 17.14154,0 30.34304,7.81124 40.33325,23.86491 1.6579,2.66416 3.07558,4.00562 3.6384,3.4428 0.54953,-0.54953 0.81819,-27.76877 0.66491,-67.36491 L 240.5,108.5 l -5,-0.5 -5,-0.5 -0.26018,-45.885272 c -0.19051,-33.59846 0.0495,-46.258417 0.89633,-47.278785 0.9008,-1.085396 3.94328,-1.33187 13.76018,-1.114727 L 257.5,13.5 l 0.5,111.49024 0.5,111.49023 3,0.51849 3,0.51848 0.5,25.77909 c 0.41597,21.44678 0.75208,25.93822 2,26.72597 0.89828,0.56704 24.60399,0.95302 59.09501,0.96219 54.51618,0.0145 57.68348,0.11307 59.25,1.84405 0.91025,1.00581 1.65499,3.44867 1.65499,5.42857 0,7.11143 4.75759,6.71435 -73.2773,6.11591 -38.62249,-0.2962 -70.7852,-0.71222 -71.4727,-0.9245 -0.91297,-0.28189 -1.25,-3.76474 -1.25,-12.91734 0,-14.5827 -0.97018,-15.78973 -5.80524,-7.22248 -3.50823,6.21624 -12.31322,14.60651 -18.40858,17.54152 -9.63166,4.6378 -20.47652,6.06504 -30.78618,4.05163 z m 17.78984,-28.79564 c 4.58273,-2.33893 6.68722,-4.61059 8.67202,-9.36089 2.10206,-5.03093 1.93019,-9.3042 -0.58301,-14.49578 -6.36229,-13.14275 -25.39541,-13.14275 -31.7577,0 -2.59082,5.35192 -2.66368,9.97315 -0.24042,15.25026 4.25188,9.25928 15.02898,13.13865 23.90911,8.60641 z M 315.02823,261.8868 c -3.25186,-1.29774 -3.9945,-2.62191 -4.01292,-7.15529 -0.0308,-7.58454 11.06273,-38.11598 15.55192,-42.80168 4.80129,-5.01147 17.14889,-6.25873 21.68277,-2.19023 2.94416,2.64196 2.11625,8.9188 -3.25475,24.67598 -5.64388,16.55779 -7.73489,21.0901 -11.2378,24.3583 -4.16715,3.88792 -13.07664,5.36874 -18.72922,3.11292 z m 13.34035,-9.1368 c 2.44203,-3.88394 12.00598,-34.33152 11.334,-36.08268 -0.94406,-2.46017 -5.38822,-2.09396 -7.07116,0.58268 -2.44203,3.88394 -12.00598,34.33152 -11.334,36.08268 0.94406,2.46017 5.38822,2.09396 7.07116,-0.58268 z m 248.93972,9.2404 c -5.09898,-2.05388 -6.35501,-7.64974 -3.42082,-15.2404 0.91188,-2.35901 1.62687,-2.75 5.02875,-2.75 4.76153,0 5.40116,0.7911 3.96669,4.90602 -2.3258,6.67178 4.25633,8.37751 7.41266,1.92096 1.60844,-3.2902 1.64708,-4.02846 0.37073,-7.08319 -0.78367,-1.87559 -3.05419,-5.5447 -5.04559,-8.15358 C 582.66993,231.72446 582,229.99426 582,226.23913 c 0,-5.58222 3.14694,-12.49551 6.9066,-15.17262 6.55531,-4.66779 18.60081,-4.72397 21.07639,-0.0983 1.2864,2.40366 1.30531,7.14329 0.0418,10.46668 C 609.179,223.65939 608.45702,224 604.58762,224 h -4.46188 l 0.53493,-3.29639 c 0.37347,-2.30141 0.0542,-3.69539 -1.05786,-4.61829 -2.2291,-1.84998 -6.21099,0.85425 -7.07934,4.80781 -0.71279,3.24531 0.31314,5.55139 5.99077,13.46606 2.7976,3.89988 3.48142,5.77539 3.4638,9.5 -0.0241,5.08505 -2.60501,11.67241 -5.62341,14.35267 -4.6551,4.13361 -13.70676,5.92934 -19.04633,3.77854 z M 279,260.85713 c 0,-0.98129 14.67279,-46.22991 16.73467,-51.60713 0.56503,-1.47355 21.79816,-1.81492 22.69434,-0.36487 0.30087,0.48682 0.0584,2.28682 -0.53881,4 -1.0309,2.95724 -1.35362,3.11487 -6.37724,3.11487 -6.11868,0 -8.7034,1.71461 -10.40037,6.89922 -2.11803,6.47108 -1.73419,7.10078 4.32839,7.10078 2.99254,0 5.62648,0.3375 5.8532,0.75 0.22671,0.4125 0.0154,2.2125 -0.46958,4 -0.87828,3.2371 -0.90723,3.25 -7.29417,3.25 -3.96079,0 -6.7217,0.46926 -7.22141,1.22738 -0.44496,0.67505 -2.41949,5.96255 -4.38784,11.75 l -3.57883,10.52262 -4.67117,0.30479 C 280.43378,262.01603 279,261.72515 279,260.85713 Z m 65.0739,0.39287 c 0.0407,-0.4125 3.97815,-12.45 8.75,-26.75 l 8.6761,-26 7.68428,-0.29088 c 13.85392,-0.52443 17.28173,2.62993 14.83085,13.64771 -0.97476,4.38199 -2.10502,6.43085 -5.05734,9.16766 -3.66471,3.3972 -3.74665,3.61578 -2.26853,6.05184 1.42662,2.35119 1.29688,3.29043 -1.86141,13.47551 l -3.39491,10.94816 -4.71647,0.30479 C 364.12241,261.97243 362,261.77065 362,261.35639 c 0,-0.41425 1.15124,-4.52751 2.55831,-9.14057 2.94946,-9.66976 2.89348,-12.58037 -0.25058,-13.02781 -2.71781,-0.38677 -4.10079,2.13283 -7.71846,14.06199 l -2.65356,8.75 h -4.96785 c -2.73233,0 -4.9346,-0.3375 -4.89396,-0.75 z m 28.02638,-33.75 c 0.93585,-1.65 2.00002,-4.43121 2.36482,-6.18047 0.54441,-2.61054 0.28192,-3.38455 -1.46484,-4.31939 -1.59408,-0.85312 -2.47472,-0.85126 -3.50938,0.007 -1.85829,1.54224 -4.82385,10.68234 -4.08807,12.59975 0.93287,2.43101 4.81648,1.20905 6.69747,-2.10732 z m 7.66517,33.93211 c -0.7134,-0.71339 15.7249,-50.1131 17.31207,-52.02552 1.39317,-1.67866 8.92248,-1.9129 8.92248,-0.27758 0,0.62096 -1.125,4.24778 -2.5,8.0596 -2.57179,7.12961 -3.24141,12.23234 -1.52812,11.64472 0.53454,-0.18333 4.02204,-4.83333 7.75,-10.33333 l 6.77812,-10 4.75,-0.30479 c 2.6125,-0.16764 4.75,0.10621 4.75,0.60854 0,0.50233 -3.6,6.01854 -8,12.25825 l -8,11.34493 v 14.8488 14.84879 l -5.23621,-0.30226 -5.23621,-0.30226 0.32558,-11.63575 c 0.31455,-11.24149 -0.39489,-14.40026 -2.60599,-11.60324 -0.5387,0.68144 -2.65189,6.30149 -4.69599,12.48899 L 388.83464,262 h -4.25065 c -2.33786,0 -4.50621,-0.25555 -4.81854,-0.56789 z M 416.0735,260.75 c 0.0404,-0.6875 3.97793,-12.725 8.75,-26.75 l 8.6765,-25.5 3.88178,-0.31822 c 2.13498,-0.17502 4.26986,0.0699 4.74418,0.54418 0.48321,0.48321 -2.21732,10.07665 -6.14176,21.81822 -3.85229,11.5257 -6.7888,21.51832 -6.52557,22.20582 0.29518,0.77096 2.4068,1.25 5.50999,1.25 5.44625,0 5.57094,0.15377 3.93355,4.85078 L 437.80435,262 h -10.90218 c -8.09427,0 -10.88324,-0.32194 -10.82867,-1.25 z M 445,260.62422 c 0,-1.59517 15.36454,-49.78701 16.41501,-51.4867 0.71766,-1.16121 7.78124,-1.60794 8.83069,-0.55848 0.31848,0.31847 -0.0326,2.45597 -0.78022,4.75 -0.74759,2.29403 -4.55845,14.18346 -8.46857,26.42096 L 453.88759,262 h -4.4438 C 446.33874,262 445,261.58553 445,260.62422 Z M 462.43031,260.25 c 0.3108,-0.9625 4.30257,-13 8.8706,-26.75 l 8.30551,-25 25.37924,-0.26755 c 13.95857,-0.14716 25.75304,0.10625 26.20991,0.56312 0.45687,0.45687 0.35026,2.20881 -0.23692,3.89319 -0.89698,2.5731 -1.71131,3.14886 -5.09571,3.6028 -2.21546,0.29715 -4.23085,0.74302 -4.47865,0.99081 -0.24779,0.2478 -3.73459,10.29813 -7.74844,22.33408 l -7.29791,21.88355 -4.66897,0.30479 C 498.29195,262.02524 497,261.74055 497,260.77595 497,260.04246 499.925,250.69328 503.5,240 507.075,229.30672 510,219.80534 510,218.88583 510,216.53366 507.96273,216 498.98331,216 c -10.65134,0 -12.19489,0.72832 -14.08768,6.6472 -0.85633,2.67783 -1.37067,5.42768 -1.14297,6.11079 0.26185,0.78553 2.40481,1.24201 5.83067,1.24201 5.83386,0 6.29379,0.56281 4.44142,5.4349 -0.89735,2.36021 -1.45465,2.5651 -6.97695,2.5651 -7.22859,0 -7.41585,0.22207 -12.01566,14.25 l -3.19707,9.75 h -4.98492 c -4.29615,0 -4.90685,-0.2418 -4.41984,-1.75 z M 530,261.63426 c 0,-0.61178 28.13974,-51.0436 29.22915,-52.38426 1.15043,-1.41575 12.34377,-1.75005 13.18204,-0.39369 0.4804,0.7773 -7.75753,48.95026 -8.8742,51.89369 -0.28549,0.75253 -2.32279,1.25 -5.11915,1.25 h -4.64493 l 0.66538,-4.43707 c 0.57971,-3.86578 0.39365,-4.58251 -1.44511,-5.56658 -3.82237,-2.04567 -7.255,-0.35723 -10.24289,5.03827 C 540.02282,261.95984 539.96014,262 535.00029,262 532.25013,262 530,261.83542 530,261.63426 Z M 557.36634,241.75 c 1.62852,-2.59422 5.08359,-17.6334 4.24395,-18.47304 -1.11809,-1.1181 -3.21177,1.727 -7.02231,9.54259 -2.19789,4.50797 -3.61637,8.66409 -3.26742,9.57344 0.89773,2.33944 4.4079,1.96612 6.04578,-0.64299 z m 49.3388,19.5 c -0.22709,-0.4125 3.45885,-12.45 8.19098,-26.75 l 8.60388,-26 3.3452,-0.32046 c 6.17416,-0.59146 6.25819,-0.24637 2.67879,11.00212 -1.80587,5.67509 -5.61564,17.63084 -8.46615,26.56834 L 615.87509,262 h -4.37853 c -2.40819,0 -4.56433,-0.3375 -4.79142,-0.75 z M 623,260.92496 c 0,-1.16189 26.2626,-49.22132 28.23835,-51.67496 1.17542,-1.45973 12.34657,-1.73063 13.21806,-0.32054 0.56037,0.90671 -8.07333,50.64169 -9.07146,52.2567 C 655.10831,261.63377 652.83243,262 650.32744,262 h -4.55453 l 0.67391,-4.49394 c 0.62271,-4.15251 0.47939,-4.58256 -1.88646,-5.66051 -3.64952,-1.66283 -6.81704,0.0763 -9.70807,5.33022 -2.22957,4.05182 -2.67784,4.34343 -7.11588,4.62902 -3.15457,0.203 -4.73641,-0.0908 -4.73641,-0.87983 z m 25.34371,-17.50336 c 0.93494,-0.35877 2.36753,-4.14675 3.77275,-9.9757 3.3609,-13.94118 1.08875,-14.19861 -5.52848,-0.62635 -4.65648,9.55067 -4.10964,12.8528 1.75573,10.60205 z M 57.666667,210.33333 C 57.3,209.96667 57,208.09807 57,206.1809 v -3.48578 l 53.60927,0.55112 53.60928,0.55111 3.89072,-3.51504 c 2.1399,-1.93327 3.89073,-4.19303 3.89073,-5.02168 0,-0.82866 -2.025,-4.34443 -4.5,-7.81283 -2.475,-3.46841 -4.49703,-6.90055 -4.49341,-7.62699 0.004,-0.72645 0.90066,-2.67081 1.99341,-4.32081 1.09275,-1.65 1.98979,-3.39248 1.99341,-3.87219 0.008,-1.12452 -15.62682,-17.19579 -19.2776,-19.81512 l -2.7842,-1.99758 -4.48002,3.67104 c -8.02243,6.57379 -6.99909,3.11706 1.93534,-6.53735 4.8028,-5.18983 9.35052,-9.78199 10.10605,-10.20481 2.85991,-1.60049 2.3442,1.17955 -0.99897,5.38512 -1.91103,2.40399 -3.47897,4.89936 -3.4843,5.54526 -0.0134,1.61579 19.71293,19.76843 21.8037,20.06432 C 171.69854,168.00548 192,141.43972 192,138.7061 192,137.29123 187.65418,125.67079 165.55724,68 L 159.23516,51.5 108.86758,50.976838 C 81.165412,50.689099 58.3875,50.351599 58.25,50.226838 58.1125,50.102077 58,47.97095 58,45.491 v -4.508999 l 51.7339,0.258999 51.73389,0.259 23.73958,62 c 13.05676,34.1 23.75151,62.56284 23.7661,63.25074 0.0223,1.05214 -38.3081,41.28123 -41.43165,43.48395 -1.29996,0.91673 -108.960413,1.01338 -109.875153,0.0986 z"
         id="path8" />
    </g>
  </g>
</svg>
